<?xml version="1.0" standalone="no"?>
<!DOCTYPE svg PUBLIC "-//W3C//DTD SVG 20010904//EN"
 "http://www.w3.org/TR/2001/REC-SVG-20010904/DTD/svg10.dtd">
<svg version="1.0" xmlns="http://www.w3.org/2000/svg"
 width="17.000000pt" height="17.000000pt" viewBox="0 0 17.000000 17.000000"
 preserveAspectRatio="xMidYMid meet">

<g transform="translate(0.000000,17.000000) scale(0.100000,-0.100000)"
fill="#000000" stroke="none">
<path d="M30 155 c0 -8 -4 -15 -10 -15 -6 0 -10 -28 -10 -65 l0 -65 35 0 35 0
0 65 c0 37 -4 65 -10 65 -5 0 -10 7 -10 15 0 8 -7 15 -15 15 -8 0 -15 -7 -15
-15z m30 -80 c0 -33 -4 -45 -15 -45 -11 0 -15 12 -15 45 0 33 4 45 15 45 11 0
15 -12 15 -45z"/>
<path d="M110 155 c0 -8 -4 -15 -10 -15 -6 0 -10 -28 -10 -65 l0 -65 35 0 35
0 0 65 c0 37 -4 65 -10 65 -5 0 -10 7 -10 15 0 8 -7 15 -15 15 -8 0 -15 -7
-15 -15z m30 -80 c0 -33 -4 -45 -15 -45 -11 0 -15 12 -15 45 0 33 4 45 15 45
11 0 15 -12 15 -45z"/>
</g>
</svg>
