<?xml version="1.0" encoding="UTF-8"?>
<!-- Generator: visioncortex VTracer 0.6.3 -->
<svg version="1.1" xmlns="http://www.w3.org/2000/svg" width="683" height="1280">
<path d="M0 0 C225.39 0 450.78 0 683 0 C683 422.4 683 844.8 683 1280 C457.61 1280 232.22 1280 0 1280 C0 857.6 0 435.2 0 0 Z " fill="#000100" transform="translate(0,0)"/>
<path d="M0 0 C0.69 -0 1.39 -0 2.1 -0.01 C4.44 -0.01 6.79 -0.01 9.13 -0.01 C10.8 -0.01 12.47 -0.02 14.14 -0.02 C18.7 -0.03 23.25 -0.03 27.8 -0.03 C31.6 -0.03 35.39 -0.04 39.19 -0.04 C48.14 -0.05 57.09 -0.05 66.04 -0.05 C75.28 -0.05 84.53 -0.06 93.78 -0.08 C101.7 -0.09 109.63 -0.1 117.56 -0.1 C122.3 -0.09 127.04 -0.1 131.78 -0.11 C136.23 -0.12 140.69 -0.12 145.14 -0.11 C146.78 -0.11 148.42 -0.11 150.06 -0.12 C152.29 -0.13 154.52 -0.12 156.75 -0.11 C158.63 -0.11 158.63 -0.11 160.54 -0.12 C163.44 0.13 163.44 0.13 165.44 2.13 C165.7 5.13 165.7 5.13 165.72 9.06 C165.72 9.78 165.73 10.5 165.74 11.24 C165.75 13.67 165.76 16.09 165.76 18.52 C165.77 20.25 165.78 21.99 165.79 23.72 C165.82 28.44 165.83 33.16 165.84 37.88 C165.86 42.8 165.89 47.73 165.91 52.66 C165.96 61.99 166 71.33 166.03 80.67 C166.07 91.29 166.12 101.92 166.17 112.54 C166.27 134.41 166.36 156.27 166.44 178.13 C167.99 178.15 167.99 178.15 169.58 178.16 C179.32 178.24 189.06 178.32 198.8 178.42 C203.81 178.47 208.82 178.52 213.83 178.56 C218.66 178.59 223.49 178.64 228.32 178.69 C230.16 178.71 232.01 178.73 233.86 178.74 C236.44 178.75 239.01 178.78 241.59 178.81 C242.36 178.82 243.13 178.82 243.92 178.82 C249.21 178.91 249.21 178.91 251.44 181.13 C251.7 184.02 251.7 184.02 251.71 187.78 C251.72 188.82 251.72 188.82 251.73 189.88 C251.74 192.2 251.74 194.53 251.74 196.86 C251.75 198.52 251.76 200.19 251.77 201.85 C251.79 205.44 251.8 209.02 251.81 212.61 C251.82 218.28 251.84 223.95 251.87 229.61 C251.91 238.57 251.94 247.53 251.97 256.49 C252.02 272.55 252.09 288.6 252.16 304.65 C252.18 310.29 252.2 315.93 252.22 321.57 C252.23 325.07 252.24 328.57 252.26 332.08 C252.26 333.71 252.27 335.34 252.27 336.96 C252.27 339.18 252.28 341.4 252.29 343.61 C252.3 344.85 252.3 346.1 252.31 347.38 C252.13 350.04 252.13 350.04 253.44 351.13 C256.02 351.21 258.56 351.23 261.14 351.2 C261.95 351.19 262.75 351.19 263.58 351.19 C265.34 351.17 267.1 351.16 268.86 351.15 C271.63 351.13 274.41 351.11 277.19 351.1 C285.09 351.07 292.98 351.02 300.88 350.96 C305.71 350.92 310.53 350.9 315.36 350.89 C317.2 350.88 319.04 350.87 320.89 350.85 C323.46 350.82 326.03 350.81 328.61 350.81 C329.38 350.8 330.14 350.78 330.93 350.77 C333.05 350.78 333.05 350.78 336.44 351.13 C338.73 354.57 338.69 355.8 338.69 359.84 C338.7 361.64 338.7 361.64 338.7 363.47 C338.7 364.8 338.69 366.14 338.69 367.47 C338.69 368.88 338.69 370.3 338.69 371.71 C338.7 375.6 338.69 379.49 338.69 383.38 C338.68 387.57 338.68 391.77 338.69 395.96 C338.69 404.17 338.69 412.39 338.68 420.6 C338.67 430.16 338.67 439.72 338.67 449.28 C338.67 466.33 338.66 483.38 338.65 500.42 C338.63 516.98 338.62 533.54 338.62 550.1 C338.62 551.13 338.62 552.15 338.62 553.2 C338.62 554.21 338.62 555.23 338.62 556.28 C338.63 575.11 338.62 593.94 338.61 612.77 C338.61 619.44 338.61 626.11 338.61 632.78 C338.61 640.9 338.6 649.03 338.59 657.15 C338.59 661.3 338.58 665.44 338.59 669.59 C338.59 673.38 338.58 677.17 338.58 680.96 C338.57 682.34 338.57 683.72 338.58 685.1 C338.58 686.96 338.57 688.82 338.57 690.68 C338.57 691.71 338.57 692.75 338.57 693.82 C338.44 696.13 338.44 696.13 337.44 697.13 C334.76 697.23 332.11 697.26 329.43 697.25 C328.59 697.25 327.75 697.25 326.89 697.25 C324.1 697.25 321.32 697.24 318.53 697.23 C316.6 697.23 314.68 697.23 312.75 697.23 C307.67 697.22 302.59 697.21 297.5 697.2 C292.32 697.19 287.14 697.19 281.96 697.18 C271.79 697.17 261.61 697.15 251.44 697.13 C251.45 698.04 251.45 698.95 251.46 699.89 C251.63 722.02 251.79 744.14 251.93 766.26 C252 776.96 252.08 787.66 252.16 798.36 C252.24 807.68 252.3 817 252.36 826.33 C252.39 831.27 252.42 836.2 252.47 841.14 C252.51 845.79 252.54 850.43 252.56 855.07 C252.57 856.78 252.58 858.49 252.6 860.2 C252.62 862.52 252.63 864.85 252.64 867.17 C252.66 869.13 252.66 869.13 252.67 871.12 C252.44 874.13 252.44 874.13 250.44 876.13 C222.39 876.13 194.34 876.13 165.44 876.13 C165.44 932.89 165.44 989.65 165.44 1048.13 C123.18 1048.2 123.18 1048.2 80.06 1048.26 C66.7 1048.29 66.7 1048.29 53.07 1048.31 C42.22 1048.32 42.22 1048.32 37.15 1048.32 C33.59 1048.33 30.04 1048.33 26.48 1048.34 C21.95 1048.36 17.43 1048.36 12.9 1048.36 C11.23 1048.36 9.57 1048.36 7.9 1048.37 C5.66 1048.38 3.41 1048.38 1.17 1048.37 C-0.09 1048.38 -1.35 1048.38 -2.64 1048.38 C-5.56 1048.13 -5.56 1048.13 -7.56 1046.13 C-7.8 1043.27 -7.8 1043.27 -7.79 1039.52 C-7.8 1038.49 -7.8 1038.49 -7.8 1037.44 C-7.8 1035.13 -7.79 1032.81 -7.77 1030.5 C-7.77 1028.85 -7.77 1027.19 -7.77 1025.54 C-7.76 1021.97 -7.76 1018.41 -7.74 1014.84 C-7.72 1009.21 -7.71 1003.57 -7.71 997.94 C-7.69 989.03 -7.67 980.13 -7.65 971.22 C-7.6 955.26 -7.57 939.3 -7.55 923.34 C-7.54 917.74 -7.53 912.13 -7.51 906.53 C-7.5 903.05 -7.49 899.57 -7.48 896.09 C-7.48 894.47 -7.48 892.85 -7.47 891.23 C-7.46 889.02 -7.46 886.82 -7.45 884.62 C-7.45 883.38 -7.45 882.15 -7.44 880.87 C-7.25 878.22 -7.25 878.22 -8.56 877.13 C-11.14 877.02 -13.69 876.97 -16.26 876.96 C-17.07 876.95 -17.87 876.95 -18.71 876.94 C-20.46 876.93 -22.22 876.91 -23.98 876.9 C-26.75 876.89 -29.53 876.86 -32.31 876.84 C-40.21 876.77 -48.1 876.71 -56 876.66 C-60.83 876.63 -65.65 876.58 -70.48 876.54 C-72.32 876.52 -74.17 876.51 -76.01 876.5 C-78.58 876.49 -81.16 876.46 -83.73 876.44 C-84.88 876.44 -84.88 876.44 -86.06 876.43 C-91.33 876.36 -91.33 876.36 -93.56 874.13 C-93.81 871.14 -93.81 871.14 -93.8 867.21 C-93.8 866.49 -93.8 865.77 -93.81 865.03 C-93.81 862.6 -93.8 860.18 -93.79 857.75 C-93.79 856.02 -93.79 854.28 -93.79 852.55 C-93.79 847.83 -93.78 843.11 -93.76 838.39 C-93.75 833.46 -93.75 828.54 -93.75 823.61 C-93.74 814.27 -93.72 804.94 -93.7 795.6 C-93.68 784.98 -93.67 774.35 -93.66 763.72 C-93.64 741.86 -93.61 720 -93.56 698.13 C-94.22 698.13 -94.88 698.13 -95.56 698.13 C-95.56 697.47 -95.56 696.81 -95.56 696.13 C-96.23 696.3 -96.9 696.46 -97.59 696.62 C-101.13 697.23 -104.58 697.28 -108.16 697.28 C-108.91 697.28 -109.66 697.29 -110.43 697.29 C-112.9 697.3 -115.36 697.3 -117.82 697.3 C-119.54 697.3 -121.25 697.31 -122.97 697.31 C-126.55 697.32 -130.14 697.32 -133.73 697.32 C-138.33 697.32 -142.93 697.33 -147.54 697.35 C-151.07 697.36 -154.61 697.36 -158.15 697.36 C-159.85 697.36 -161.54 697.37 -163.24 697.38 C-165.61 697.39 -167.98 697.38 -170.34 697.38 C-171.4 697.39 -171.4 697.39 -172.48 697.39 C-177.33 697.36 -177.33 697.36 -179.56 695.13 C-179.81 692.69 -179.81 692.69 -179.81 689.53 C-179.81 688.34 -179.82 687.14 -179.82 685.9 C-179.82 684.56 -179.81 683.22 -179.81 681.88 C-179.81 680.46 -179.81 679.05 -179.82 677.63 C-179.82 673.73 -179.82 669.82 -179.81 665.92 C-179.8 661.71 -179.81 657.51 -179.81 653.3 C-179.81 645.06 -179.81 636.82 -179.8 628.57 C-179.79 618.98 -179.79 609.39 -179.79 599.8 C-179.79 582.7 -179.78 565.6 -179.77 548.49 C-179.75 531.88 -179.75 515.26 -179.75 498.64 C-179.75 497.62 -179.75 496.6 -179.75 495.54 C-179.75 494.52 -179.75 493.5 -179.75 492.45 C-179.75 473.56 -179.74 454.67 -179.73 435.78 C-179.73 429.09 -179.73 422.39 -179.73 415.7 C-179.73 407.55 -179.72 399.4 -179.71 391.25 C-179.71 387.09 -179.71 382.93 -179.71 378.77 C-179.71 374.96 -179.7 371.16 -179.7 367.35 C-179.7 365.97 -179.7 364.59 -179.7 363.21 C-179.7 361.34 -179.69 359.47 -179.69 357.61 C-179.69 356.57 -179.69 355.53 -179.69 354.45 C-179.56 352.13 -179.56 352.13 -178.56 351.13 C-175.94 351.04 -173.35 351.01 -170.74 351.02 C-169.92 351.02 -169.1 351.02 -168.25 351.02 C-165.53 351.02 -162.81 351.03 -160.09 351.04 C-158.21 351.04 -156.32 351.04 -154.44 351.04 C-149.48 351.04 -144.52 351.05 -139.55 351.07 C-134.49 351.08 -129.43 351.08 -124.37 351.08 C-114.43 351.1 -104.5 351.11 -94.56 351.13 C-94.56 350.25 -94.55 349.37 -94.55 348.47 C-94.44 327.08 -94.34 305.69 -94.22 284.3 C-94.17 273.96 -94.11 263.61 -94.06 253.27 C-94.02 244.26 -93.97 235.24 -93.92 226.23 C-93.9 221.46 -93.87 216.68 -93.85 211.91 C-93.83 207.42 -93.81 202.93 -93.78 198.44 C-93.77 196.79 -93.76 195.14 -93.76 193.48 C-93.75 191.24 -93.73 188.99 -93.72 186.75 C-93.71 185.49 -93.71 184.23 -93.7 182.93 C-93.56 180.13 -93.56 180.13 -92.56 179.13 C-89.91 179.01 -87.29 178.95 -84.64 178.93 C-83.82 178.92 -82.99 178.91 -82.13 178.9 C-79.38 178.87 -76.62 178.84 -73.87 178.82 C-71.96 178.8 -70.06 178.78 -68.16 178.75 C-63.13 178.7 -58.11 178.65 -53.09 178.6 C-47.97 178.55 -42.85 178.5 -37.73 178.44 C-27.67 178.33 -17.62 178.23 -7.56 178.13 C-7.56 176.77 -7.56 176.77 -7.56 175.37 C-7.59 153.23 -7.6 131.09 -7.61 108.95 C-7.62 98.25 -7.62 87.54 -7.64 76.83 C-7.65 67.5 -7.65 58.17 -7.65 48.85 C-7.66 43.9 -7.66 38.96 -7.67 34.02 C-7.67 29.37 -7.68 24.73 -7.67 20.08 C-7.67 18.37 -7.68 16.66 -7.68 14.95 C-7.68 12.62 -7.68 10.3 -7.68 7.97 C-7.68 6.02 -7.68 6.02 -7.68 4.02 C-7.46 -1.29 -4.7 0.01 0 0 Z " fill="#FCFCFC" transform="translate(258.56065368652344,58.86628723144531)"/>
<path d="M0 0 C0.67 0.16 1.34 0.32 2.03 0.49 C5.52 1.09 8.93 1.18 12.45 1.21 C13.18 1.22 13.92 1.23 14.67 1.24 C17.08 1.27 19.49 1.29 21.89 1.32 C23.57 1.34 25.24 1.36 26.92 1.38 C31.32 1.43 35.71 1.48 40.11 1.53 C44.6 1.58 49.09 1.64 53.58 1.69 C62.39 1.8 71.19 1.9 80 2 C80 2.33 80 2.66 80 3 C52.94 3 25.88 3 -2 3 C-1.34 2.01 -0.68 1.02 0 0 Z " fill="#BFBCBB" transform="translate(426,932)"/>
<path d="M0 0 C25.74 0 51.48 0 78 0 C78.5 1.49 78.5 1.49 79 3 C78.01 2.67 77.02 2.34 76 2 C73.55 1.88 71.13 1.81 68.68 1.79 C67.94 1.78 67.2 1.77 66.44 1.76 C63.98 1.73 61.53 1.71 59.08 1.68 C57.38 1.66 55.68 1.64 53.98 1.62 C49.51 1.57 45.04 1.52 40.56 1.47 C36 1.42 31.43 1.36 26.87 1.31 C17.91 1.2 8.96 1.1 0 1 C0 0.67 0 0.34 0 0 Z " fill="#C0BDBC" transform="translate(174,934)"/>
<path d="M0 0 C3.58 -0.09 7.17 -0.14 10.75 -0.19 C11.77 -0.21 12.78 -0.24 13.83 -0.26 C14.81 -0.27 15.79 -0.28 16.8 -0.29 C17.7 -0.31 18.6 -0.32 19.53 -0.34 C22 0 22 0 26 3 C17.09 3 8.18 3 -1 3 C-0.67 2.01 -0.34 1.02 0 0 Z " fill="#BFBCBB" transform="translate(388,70)"/>
<path d="M0 0 C2.63 -0.03 5.25 -0.05 7.88 -0.06 C8.62 -0.07 9.37 -0.08 10.14 -0.09 C15.77 -0.11 15.77 -0.11 18 1 C18 1.66 18 2.32 18 3 C11.73 3 5.46 3 -1 3 C-0.67 2.01 -0.34 1.02 0 0 Z " fill="#BFBCBB" transform="translate(480,249)"/>
<path d="M0 0 C1.96 -0.03 3.92 -0.05 5.88 -0.06 C6.97 -0.07 8.06 -0.09 9.18 -0.1 C12 0 12 0 14 1 C14 1.66 14 2.32 14 3 C9.05 3 4.1 3 -1 3 C-0.67 2.01 -0.34 1.02 0 0 Z " fill="#BFBCBB" transform="translate(235,249)"/>
</svg>
