<?xml version="1.0" encoding="UTF-8"?>
<svg version="1.1" viewBox="0 0 1536 1600" xmlns="http://www.w3.org/2000/svg">
<path transform="translate(0)" d="m0 0h1536v1600h-1536v-1600z" fill="#FAFEFE"/>
<path transform="translate(0)" d="m0 0h1536v1600h-1536v-1600zm958 91.5c-3.73 0.498-7.27 0.628-11 0.625-0.698 8.54e-4 -1.4 0.00171-2.11 0.00259-2.33 0.00164-4.66-0.00385-7-0.00932-1.69-2.8e-4 -3.38-1.17e-4 -5.07 4.51e-4 -4.64 2.95e-4 -9.29-0.00564-13.9-0.0126-5.01-0.00638-10-0.00694-15-0.00818-8.68-0.00289-17.4-0.00933-26-0.0181-12.6-0.0126-25.1-0.0186-37.7-0.0229-20.4-0.00707-40.8-0.0179-61.2-0.0317-1.83-0.00124-1.83-0.00124-3.7-0.00251-9.9-0.00674-19.8-0.0137-29.7-0.0206-8.65-0.00605-17.3-0.012-26-0.0179-1.22-8.28e-4 -2.44-0.00166-3.69-0.00251-20.3-0.0137-40.6-0.0234-60.9-0.0304-12.5-0.00448-25.1-0.0125-37.6-0.0251-8.58-0.00842-17.2-0.0133-25.7-0.0154-4.95-0.00135-9.91-0.00436-14.9-0.0118-4.53-0.00675-9.07-0.00889-13.6-0.00736-1.64-2.71e-4 -3.28-0.00224-4.92-0.00609-2.23-0.00499-4.46-0.00378-6.69-0.00105-1.24-9.22e-4 -2.48-0.00184-3.75-0.00279-7.22-0.0314-7.22-0.0314-13.6 2.67-3.27 2.32-6.86 1.76-10.7 1.64-0.843-0.0114-1.69-0.0227-2.56-0.0344-3.6-0.0489-7.2-0.133-10.8-0.215-2.63-0.0545-5.26-0.0906-7.9-0.126-1.21-0.0373-1.21-0.0373-2.44-0.0754-5.35-0.0691-8.84 0.893-13.6 3.26-2.44 0.59-2.44 0.59-4.56 0.938-8.7 1.86-14.2 8.16-19.4 15.1-1.7 3.24-2.86 6.53-4 10l-1.69 3.62c-3.04 8.34-2.25 18.3-2.52 27.1-0.0385 1.17-0.077 2.34-0.117 3.55-0.0752 2.35-0.141 4.69-0.196 7.04-0.0334 1.08-0.0667 2.16-0.101 3.28-0.0251 0.972-0.0501 1.94-0.0759 2.94-0.303 2.47-0.303 2.47-2.3 5.47-0.179 2.58-0.242 5.05-0.211 7.63 0.00131 0.776 0.00263 1.55 0.00398 2.35 0.00651 2.58 0.027 5.15 0.047 7.73 0.00628 1.81 0.0115 3.61 0.0158 5.42 0.0133 4.78 0.0377 9.55 0.0654 14.3 0.043 7.58 0.0732 15.2 0.096 22.7 0.01 2.62 0.0271 5.23 0.045 7.85 0.0594 12-0.39 24-1.06 36-1.27 0.00143-2.55 0.00285-3.86 0.00432-12 0.0167-24 0.0595-36.1 0.128-6.18 0.0343-12.4 0.0594-18.5 0.0635-5.97 0.00428-11.9 0.0327-17.9 0.0779-2.27 0.013-4.55 0.0173-6.82 0.0127-3.19-0.0049-6.38 0.0212-9.57 0.0544-0.938-0.00863-1.88-0.0173-2.84-0.0261-5.59 0.0974-8.61 1.01-12.9 4.56-1.99 1.52-3.47 1.72-5.96 1.65-0.804-0.0101-1.61-0.0201-2.44-0.0305-0.845-0.0352-1.69-0.0704-2.56-0.107-0.888-0.0142-1.78-0.0284-2.69-0.043-2.82-0.0476-5.64-0.128-8.46-0.215-2.83-0.0756-5.65-0.144-8.48-0.193-1.75-0.0319-3.51-0.0789-5.26-0.143-4.82-0.0989-7.63 0.245-11.6 3.21-2.11 0.449-2.11 0.449-4.19 0.688-7.81 1.59-13.7 7.37-18.2 13.7-2.44 3.96-3.81 7.96-4.92 12.5-0.641 2.16-0.641 2.16-2.64 5.16-1.09 4.68-1.08 9.25-0.957 14 0.0224 1.55 0.0438 3.1 0.0645 4.64 0.0371 2.42 0.0803 4.83 0.139 7.25 0.0547 2.35 0.0836 4.7 0.109 7.05 0.0357 1.07 0.0357 1.07 0.0721 2.17 0.019 3.66-0.163 5.52-2.43 8.45-2.74 4.67-2.53 8.41-2.46 13.7-5.84e-4 1.03-0.00117 2.05-0.00177 3.11 0.00278 3.38 0.0339 6.75 0.0652 10.1 0.00746 2.35 0.0132 4.69 0.0172 7.04 0.0153 6.17 0.0545 12.3 0.0988 18.5 0.041 6.29 0.0592 12.6 0.0793 18.9 0.0429 12.3 0.111 24.7 0.195 37-1.31-0.00666-2.62-0.0133-3.97-0.0202-12.3-0.0607-24.7-0.106-37-0.135-6.34-0.0157-12.7-0.037-19-0.0709-6.11-0.0325-12.2-0.0505-18.3-0.0583-2.34-0.00556-4.67-0.0164-7.01-0.0326-3.26-0.0217-6.53-0.0248-9.79-0.0234-0.975-0.0108-1.95-0.0216-2.95-0.0327-0.886 0.00412-1.77 0.00825-2.69 0.0125-0.772-0.00277-1.54-0.00553-2.34-0.00838-0.622 0.122-1.24 0.244-1.89 0.369l-2 3c-2.96 0.314-5.73 0.441-8.7 0.441-0.868 0.0132-1.74 0.0264-2.63 0.04-2.79 0.041-5.57 0.0626-8.36 0.0811-2.77 0.0239-5.54 0.0522-8.3 0.0918-1.72 0.0242-3.45 0.0392-5.17 0.0436-6.65 0.0853-11.9 1.3-17.8 4.3-1.43 0.286-2.87 0.535-4.31 0.75-7.88 1.69-12.5 7.67-17.2 13.9-1.85 2.91-2.91 5.71-3.8 9.03-0.703 2.34-0.703 2.34-2.21 5.36-1.97 4.56-2.02 8.98-2.12 13.9-0.033 0.933-0.0661 1.87-0.1 2.83-0.14 3.96-0.248 7.93-0.359 11.9-0.0857 2.91-0.188 5.81-0.291 8.72-0.0189 0.893-0.0377 1.79-0.0571 2.71-0.0301 0.838-0.0603 1.68-0.0913 2.54-0.0198 0.732-0.0396 1.46-0.0601 2.22-0.417 2.19-0.417 2.19-1.92 4.5-1.95 3.52-1.86 6.05-1.85 10.1-0.00204 0.724-0.00409 1.45-0.0062 2.19-3e-3 2.38 0.0154 4.77 0.0345 7.15 0.00306 1.66 0.00493 3.32 0.00568 4.99 0.0046 3.48 0.019 6.96 0.0412 10.4 0.0283 4.46 0.0392 8.91 0.0437 13.4 0.00416 3.43 0.014 6.86 0.0259 10.3 0.00569 1.64 0.0105 3.29 0.0143 4.93 0.00689 2.3 0.0205 4.59 0.0363 6.89 0.00683 1.31 0.0137 2.61 0.0207 3.96 0.0397 3.26 0.0397 3.26 0.643 5.8 0.514 2.7 0.616 5.14 0.605 7.88-0.00149 1.05-0.00298 2.1-0.00452 3.18-0.0068 1.15-0.0136 2.29-0.0206 3.47-0.00323 1.22-0.00646 2.44-0.00979 3.7-0.00998 3.39-0.0245 6.78-0.041 10.2-0.0167 3.66-0.0274 7.32-0.0389 11-0.0207 6.36-0.0452 12.7-0.0721 19.1-0.0391 9.25-0.0724 18.5-0.104 27.8-0.0521 15.1-0.109 30.2-0.168 45.3-0.0572 14.5-0.113 29-0.166 43.6-0.00325 0.887-0.0065 1.77-0.00985 2.69-0.0357 9.76-0.071 19.5-0.106 29.3-0.00945 2.62-0.0189 5.24-0.0284 7.86-0.00625 1.73-0.0125 3.47-0.0187 5.2-0.0391 10.8-0.0797 21.7-0.122 32.5-0.149 38-0.235 76-0.197 114l2 1c2.16 4.09 2.22 7.6 2.16 12.2-0.0078 1.02-0.0078 1.02-0.0158 2.07-0.0177 2.17-0.0488 4.34-0.0819 6.51-0.894 15.4-0.894 15.4 2.88 29.9 1.36 2.79 2.25 5.08 3.06 8.12 2.36 7.67 9.57 12.9 16 17.2 3.93 1.7 7.88 2.89 12 4l2 1c1.33 0.102 2.67 0.146 4 0.158 0.825 0.0103 1.65 0.0205 2.5 0.0311 0.893 0.0073 1.79 0.0146 2.71 0.0221 1.88 0.0281 3.77 0.0567 5.65 0.0859 2.98 0.0412 5.95 0.0781 8.93 0.104 2.87 0.0276 5.74 0.0735 8.61 0.122 0.887 0.00325 1.77 0.00651 2.69 0.00986 0.834 0.0166 1.67 0.0331 2.53 0.0502 0.729 0.00809 1.46 0.0162 2.21 0.0245 2.18 0.392 2.18 0.392 4.32 1.9 4.26 2.23 8.23 1.89 13 1.84 1.02 4.38e-4 2.03 8.76e-4 3.08 0.00133 3.35-0.00209 6.7-0.0254 10-0.0489 2.32-0.0056 4.65-0.00987 6.97-0.0129 6.11-0.0114 12.2-0.0409 18.3-0.0741 6.24-0.0307 12.5-0.0444 18.7-0.0595 12.2-0.0322 24.5-0.0834 36.7-0.146 0.00587 1.32 0.0117 2.64 0.0178 4 0.0572 12.4 0.13 24.8 0.218 37.3 0.0448 6.39 0.084 12.8 0.111 19.2 0.026 6.16 0.0663 12.3 0.117 18.5 0.0167 2.35 0.0282 4.7 0.0344 7.06 0.0096 3.29 0.0376 6.58 0.07 9.87-0.00144 0.977-0.00287 1.95-0.00435 2.96 0.0125 0.897 0.0251 1.79 0.038 2.72 0.00691 1.17 0.00691 1.17 0.014 2.36 0.481 2.68 1.75 4 3.38 6.15 0.29 2.94 0.417 5.67 0.406 8.61 0.0108 0.839 0.0217 1.68 0.0328 2.54 0.0342 2.68 0.0498 5.36 0.0609 8.04 0.0147 3.51 0.0486 7.03 0.0938 10.5-0.00302 0.794-0.00604 1.59-0.00916 2.41 0.076 5.76 1.37 10.5 3.42 15.9 0.5 1.58 1 3.17 1.5 4.75 2.53 7.43 6.51 11.3 12.5 16.2 0.772 0.686 1.54 1.37 2.34 2.08 3.05 2.21 5.73 3.1 9.35 4.11 6.23 1.77 6.23 1.77 8.31 2.81 2.75 0.0384 5.48 0.0182 8.23-0.043 1.69-0.0224 3.38-0.0439 5.07-0.0645 2.66-0.0369 5.32-0.0798 7.98-0.139 2.57-0.0549 5.14-0.0837 7.71-0.109 0.784-0.0238 1.57-0.0476 2.37-0.0721 4.05-0.019 6.77 0.309 10.3 2.42 4.92 2.56 9.37 2.58 14.8 2.55 1.02 0.0103 2.03 0.0207 3.08 0.0313 3.33 0.0293 6.67 0.0309 10 0.0322 2.32 0.015 4.64 0.0317 6.96 0.0501 6.09 0.0436 12.2 0.0637 18.3 0.0787 6.22 0.0196 12.4 0.0616 18.7 0.102 12.2 0.0752 24.4 0.126 36.6 0.16 0.725 12.9 1.13 25.8 1.04 38.7-0.0178 2.72-0.0278 5.45-0.0359 8.17-0.0241 7.73-0.0605 15.5-0.105 23.2-0.0267 4.77-0.0438 9.54-0.0549 14.3-0.0062 1.81-0.0162 3.61-0.0301 5.42-0.0191 2.5-0.0261 5.01-0.0303 7.51-0.0131 1.11-0.0131 1.11-0.0266 2.25 0.00713 3.72 0.117 5.29 2.24 8.47 0.303 2.77 0.303 2.77 0.379 6.09 0.0342 1.19 0.0683 2.39 0.104 3.62 0.0264 1.25 0.0529 2.5 0.0801 3.79 0.0599 2.47 0.123 4.94 0.191 7.41 0.0239 1.1 0.0479 2.19 0.0725 3.32 0.0602 2.86 0.0602 2.86 1.17 5.77-0.00561 1.92-0.0521 3.83-0.125 5.75-0.0438 5.22 0.768 8.54 3.12 13.2 0.432 1.64 0.847 3.29 1.25 4.94 1.64 5.61 4.53 9.1 8.75 13.1 0.575 0.545 1.15 1.09 1.74 1.65 13.2 11.2 30.2 10.5 46.4 10.2 7.52-0.162 13.1-0.171 19.9 3.17 8.56 1.38 17.2 1.14 25.8 1.13 1.72 0.00115 3.44 0.00274 5.16 0.00473 4.71 0.00417 9.43 0.00211 14.1-9.86e-4 5.09-0.00226 10.2 0.00123 15.3 0.00398 9.97 0.00445 19.9 0.00349 29.9 5.87e-4 8.11-0.00226 16.2-0.00256 24.3-0.00148 1.16 1.53e-4 2.31 3.06e-4 3.5 4.64e-4 2.35 3.2e-4 4.69 6.44e-4 7.04 9.73e-4 22 0.00285 44-4.27e-4 66-0.0058 18.9-0.00446 37.7-0.0037 56.6 9.19e-4 21.9 0.00536 43.8 0.00745 65.8 0.00439 2.34-3.19e-4 4.69-6.33e-4 7.03-9.43e-4 1.73-2.31e-4 1.73-2.31e-4 3.49-4.68e-4 8.09-8.6e-4 16.2 5.87e-4 24.3 0.00295 9.88 0.00282 19.8 0.00202 29.6-0.00328 5.03-0.00261 10.1-0.00369 15.1-3.51e-4 24.1 0.0667 24.1 0.0667 48.2-0.516 0.852-0.0304 1.7-0.0607 2.58-0.092 4.13-0.206 7.42-0.8 11.2-2.52 2.72-0.195 2.72-0.195 5.65-0.125 1.08 0.017 2.16 0.034 3.28 0.0515 1.71 0.0364 1.71 0.0364 3.45 0.0735 13.4 0.137 25.9-0.454 38.6-5l3.56-1.12c7.68-4.19 14.6-11.5 17.1-20l0.375-1.88 1-2.38c2.08-5.45 2.11-10.9 1.99-16.6-0.0175-1.54-0.0344-3.09-0.0508-4.63-0.0309-2.41-0.0665-4.81-0.113-7.22-0.0426-2.34-0.0658-4.68-0.0864-7.02-0.0186-0.711-0.0372-1.42-0.0564-2.15-0.03-5.91 1.53-9.82 4.4-14.9 1.03-2.34 1.15-3.91 1.11-6.46-0.00566-0.872-0.0113-1.74-0.0172-2.64-0.0165-0.949-0.0331-1.9-0.0501-2.87-0.00946-1.01-0.0189-2.01-0.0287-3.05-0.0337-3.32-0.0818-6.64-0.13-9.97-0.0262-2.3-0.0514-4.61-0.0758-6.91-0.0667-6.06-0.146-12.1-0.227-18.2-0.0809-6.19-0.15-12.4-0.221-18.6-0.14-12.1-0.292-24.3-0.453-36.4 1.31-0.00365 2.61-0.00729 3.96-0.011 12.3-0.037 24.7-0.0948 37-0.173 6.34-0.0394 12.7-0.0716 19-0.0871 6.12-0.0152 12.2-0.0497 18.4-0.0973 2.33-0.0148 4.66-0.0227 6.99-0.0236 3.27-0.00238 6.55-0.0295 9.82-0.0622 1.43 0.00755 1.43 0.00755 2.89 0.0152 5.88-0.0904 10.4-1.17 15.7-3.66 3.81-1.53 7.57-1.47 11.6-1.45 1.26-0.0177 1.26-0.0177 2.55-0.0357 2.65-0.0349 5.3-0.0444 7.96-0.0502 2.67-0.0164 5.35-0.0384 8.02-0.0716 1.65-0.0195 3.31-0.029 4.96-0.0269 3.9-0.0362 6.81-0.176 10.1-2.28 1.35-0.193 2.71-0.358 4.06-0.5 8.13-1.69 14.6-9.03 19.1-15.7 1.98-3.51 2.49-6.79 2.88-10.8 0.665-1.33 1.33-2.67 2-4 1.49-8.86 1.03-17.8 0.829-26.8-0.0425-2.05-0.0658-4.1-0.0864-6.15-0.0331-1.82-0.0331-1.82-0.0669-3.67 0.377-3.93 1.45-7.51 4.32-10.4 0.0932-1.36 0.117-2.73 0.114-4.1-7.05e-5 -0.883-1.41e-4 -1.77-2.14e-4 -2.68-0.00775-1.46-0.00775-1.46-0.0157-2.96-0.00146-1.02-0.00292-2.05-0.00443-3.1-0.00382-2.23-0.00994-4.46-0.0181-6.69-0.0127-3.52-0.0193-7.04-0.0241-10.6-0.0115-7.47-0.0307-14.9-0.051-22.4-0.0235-8.65-0.044-17.3-0.0559-26-0.00652-3.48-0.019-6.96-0.0317-10.4-0.00363-2.12-0.00698-4.24-0.01-6.36-0.00775-1.46-0.00775-1.46-0.0157-2.96-7.05e-5 -0.883-1.41e-4 -1.77-2.14e-4 -2.68-0.00222-0.772-0.00444-1.54-0.00673-2.34 0.12-1.76 0.12-1.76 1.12-2.76 1.37-0.101 2.74-0.134 4.11-0.138 0.886-0.00545 1.77-0.0109 2.68-0.0165 0.98-0.00104 1.96-0.00208 2.97-0.00316 1.03-0.00508 2.05-0.0102 3.11-0.0154 2.24-0.0107 4.47-0.0193 6.71-0.0261 3.54-0.0117 7.08-0.0312 10.6-0.0531 10.1-0.0617 20.1-0.116 30.2-0.149 6.15-0.0209 12.3-0.0562 18.4-0.101 2.35-0.0142 4.69-0.0229 7.04-0.0261 3.28-0.0049 6.56-0.028 9.85-0.0553 0.972 0.00301 1.94 0.00601 2.94 0.00911 5.08-0.0628 8.08-0.419 12.3-3.43 2.11-0.379 2.11-0.379 4.22-0.385 0.798-0.0101 1.6-0.0202 2.42-0.0306 0.849 0.00302 1.7 0.00604 2.57 0.00916 0.886-0.0108 1.77-0.0217 2.69-0.0328 2.83-0.0342 5.65-0.0498 8.48-0.0609 3.72-0.0146 7.43-0.0484 11.1-0.0938 0.845 0.00302 1.69 0.00604 2.56 0.00916 5.43-0.0682 9.03-1.07 13.9-3.42l3.81-0.625c7.58-1.73 13.8-9.3 18.2-15.4 5.48-12.8 5.77-25.8 5.81-39.6 0.0232-1.99 0.0486-3.99 0.0762-5.98 0.062-4.82 0.095-9.64 0.111-14.5 0.99-0.33 1.98-0.66 3-1 0.0686-57.1 0.122-114 0.153-171 0.00374-6.74 0.00763-13.5 0.0116-20.2 3.92e-4 -0.671 7.85e-4 -1.34 0.00119-2.03 0.0128-21.7 0.0353-43.5 0.0629-65.2 0.0291-23 0.0471-46 0.0534-68.9 0.00412-13.8 0.0172-27.5 0.0415-41.3 0.0158-9.43 0.0207-18.9 0.0168-28.3-0.00193-5.45 0.0011-10.9 0.0171-16.3 0.0145-4.98 0.0154-9.97 0.00508-14.9-0.00127-1.81 0.00259-3.62 0.012-5.42 0.012-2.45 0.0056-4.9-0.00551-7.34 0.0118-1.06 0.0118-1.06 0.0239-2.15-0.0432-4.18-0.712-6.19-3.39-9.35-0.267-2.85-0.37-5.48-0.336-8.32-0.0125-1.69-0.0256-3.37-0.0391-5.06-0.00388-2.63-2.43e-4 -5.26 0.0146-7.89 0.0541-15.8-0.989-31.9-12.6-43.7-0.615-0.666-1.23-1.33-1.86-2.02-4.21-4.42-7.57-6.82-13.6-7.98-2.35-0.45-4.19-0.818-6.26-2.02-2.89-1.26-5.18-1.22-8.33-1.21-1.18 0.00193-2.36 0.00387-3.57 0.00586-1.23 0.0122-2.45 0.0245-3.72 0.0371-1.83 9.67e-4 -1.83 9.67e-4 -3.7 0.00195-5.45 0.0268-10.6 0.258-15.9 1.19-2.41-0.234-2.41-0.234-4.62-0.75-0.735-0.16-1.47-0.32-2.23-0.484-2.15-0.766-2.15-0.766-4-2.29-2.46-1.7-3.66-1.86-6.61-1.88-0.889-0.0125-1.78-0.0251-2.69-0.038-1.45 0.00215-1.45 0.00215-2.93 0.00435-1.02-0.0102-2.05-0.0204-3.11-0.0309-3.39-0.0302-6.77-0.0394-10.2-0.0485-2.35-0.0168-4.7-0.035-7.05-0.0544-6.18-0.0476-12.4-0.0773-18.5-0.103-6.31-0.0298-12.6-0.0763-18.9-0.121-12.4-0.0861-24.8-0.153-37.1-0.209 0.00999-1.94 0.00999-1.94 0.0202-3.92 0.0608-12.2 0.106-24.4 0.135-36.6 0.0157-6.26 0.0369-12.5 0.0709-18.8 0.0326-6.04 0.0505-12.1 0.0583-18.1 0.00555-2.31 0.0164-4.62 0.0326-6.92 0.0217-3.23 0.0248-6.45 0.0234-9.68 0.0108-0.958 0.0216-1.92 0.0327-2.9-0.00412-0.881-0.00825-1.76-0.0125-2.67 0.00277-0.763 0.00553-1.53 0.00838-2.31-0.467-2.68-1.66-4.04-3.37-6.12-0.913-2.7-1.13-5.16-1.16-8-0.0103-0.775-0.0205-1.55-0.0311-2.35-0.0073-0.829-0.0146-1.66-0.0221-2.51-0.0281-1.77-0.0567-3.55-0.0859-5.32-0.0412-2.78-0.0781-5.56-0.104-8.35-0.0278-2.69-0.0737-5.39-0.122-8.08-0.00325-0.821-0.00651-1.64-0.00986-2.49-0.118-5.6-1.26-9.74-3.47-14.9-0.669-1.79-0.669-1.79-1.35-3.61-1.88-3.86-4.09-6.56-7.02-9.64-0.704-0.773-0.704-0.773-1.42-1.56-2.8-3-5.51-5.36-9.2-7.19l-2.38 0.0625c-2.62-0.0625-2.62-0.0625-5.7-2.05-4.44-2.61-8.33-2.46-13.4-2.26-0.886 0.0151-1.77 0.0303-2.68 0.0459-2.81 0.0486-5.62 0.123-8.44 0.204-3.71 0.107-7.42 0.186-11.1 0.25-0.844 0.0332-1.69 0.0664-2.56 0.101-5.59 0.0925-8.42-0.777-12.8-4.35l-1-1c-1.34-0.105-2.68-0.142-4.02-0.151-1.3-0.0125-1.3-0.0125-2.63-0.0253-0.958-0.00418-1.92-0.00837-2.9-0.0127-1.5-0.0124-1.5-0.0124-3.04-0.0251-2.19-0.0174-4.37-0.0326-6.56-0.0458-3.45-0.0209-6.91-0.048-10.4-0.0767-7.33-0.0598-14.7-0.112-22-0.163-8.49-0.0591-17-0.121-25.5-0.192-3.41-0.0267-6.83-0.0474-10.2-0.068-2.08-0.0166-4.16-0.0335-6.24-0.0507-0.958-0.00418-1.92-0.00837-2.9-0.0127-1.3-0.0125-1.3-0.0125-2.63-0.0253-1.14-0.00773-1.14-0.00773-2.29-0.0156-1.73-0.136-1.73-0.136-2.73-1.14-0.104-3.15-0.144-6.29-0.142-9.44-0.00347-0.992-0.00695-1.98-0.0105-3.01-0.00737-2.16-0.0127-4.33-0.0163-6.49-0.00715-3.43-0.0228-6.85-0.0413-10.3-0.0525-9.74-0.1-19.5-0.116-29.2-0.0101-5.95-0.0395-11.9-0.0813-17.9-0.0123-2.27-0.0174-4.54-0.0152-6.8 0.00236-3.18-0.0199-6.36-0.0475-9.54 0.0066-0.933 0.0132-1.87 0.02-2.83-0.0766-5.38-0.873-9.11-3.66-13.7-1.58-3.13-1.29-6.42-1.11-9.83 0.036-1.54 0.0718-3.07 0.107-4.61 0.0799-2.37 0.169-4.74 0.265-7.11 0.574-15.4-0.927-30.2-11.8-42-5.18-4.85-10.2-8.5-17.3-9.77-2.1-0.472-2.1-0.472-5.74-2.02-7.38-2.5-15.4-1.69-23.1-1.52-2.38 0.048-4.77 0.0913-7.15 0.122-1.47 0.0196-2.95 0.049-4.42 0.0899-4.07 0.0596-7-0.431-10.7-2.15-4.68-1.4-9.46-1.4-14.3-1.62-0.925-0.0516-1.85-0.103-2.8-0.156-0.907-0.0438-1.81-0.0877-2.75-0.133-0.818-0.0408-1.64-0.0815-2.48-0.124-2.76-0.0222-2.76-0.0222-5.87 0.532z" fill="#000102"/>
<path transform="translate(1535,1377)" d="m0 0h1v223h-1536v-46c2.33-1.16 3.67-1.13 6.26-1.13 0.902-0.00294 1.8-0.00588 2.73-0.00891 1 0.00185 2 0.0037 3.03 0.0056 1.06-0.00197 2.12-0.00395 3.21-0.00598 3.6-0.00546 7.21-0.00371 10.8-0.00208 2.6-0.00244 5.2-0.00533 7.8-0.00861 5.7-0.00648 11.4-0.00921 17.1-0.00956 8.53-5.44e-4 17.1-0.00683 25.6-0.0143 14.5-0.0125 29.1-0.0203 43.6-0.0255 14.7-0.00531 29.5-0.0128 44.2-0.0229 0.93-6.39e-4 1.86-0.00128 2.82-0.00194 4.74-0.00327 9.48-0.00657 14.2-0.00988 34.3-0.0239 68.7-0.043 103-0.0596 34-0.0164 68-0.0349 102-0.0561 1.06-6.58e-4 2.11-0.00132 3.2-2e-3 9.64-0.00601 19.3-0.0121 28.9-0.0181 24-0.0151 47.9-0.0299 71.9-0.0444 1.64-9.95e-4 1.64-9.95e-4 3.31-0.00201 53.1-0.0322 106-0.0608 159-0.0891 18.4-0.00981 36.9-0.0196 55.3-0.0295 1.14-6.14e-4 2.29-0.00123 3.47-0.00186 53.2-0.0285 106-0.0597 159-0.0915 3.45-0.00207 6.9-0.00413 10.3-0.0062 22.9-0.0137 45.7-0.0274 68.6-0.0412 45.5-0.0274 91-0.0545 136-0.0814 2.17-0.00128 4.33-0.00257 6.5-0.00385 97.6-0.0578 195-0.112 293-0.166 1.37-7.5e-4 1.37-7.5e-4 2.77-0.00151 45.7-0.025 91.4-0.0498 137-0.0744l-0.562-3.31c-0.438-3.69-0.438-3.69 0.562-6.69 2.44 0.375 2.44 0.375 5 1 1.52 3.05 1.24 5.64 1 9-1 1.88-1 1.88-3 3-2.68 0.534-5.26 0.776-8 1 1.79 0.195 3.58 0.381 5.38 0.562 0.998 0.104 2 0.209 3.02 0.316 2.59 0.333 2.59 0.333 4.6-0.879l1-179z" fill="#252628"/>
<path transform="translate(765 1565)" d="m0 0c6.91 0.504 13.6 0.376 20.6 0.0352 16-0.664 31.9-0.724 47.9-0.701 3.98 0.00576 7.95 0.00236 11.9-0.00357 3.14-0.00365 6.28-0.00245 9.42 1.28e-4 1.47 6.53e-4 2.93-1.01e-4 4.4-0.00248 6.75-0.00859 13.5 0.0432 20.2 0.548 7.03 0.512 13.9 0.533 20.9 0.123 13.1-0.671 26.2-0.676 39.3-0.664 2.65-0.00136 5.29-0.00311 7.94-0.00531 6.39-0.0044 12.8-0.00351 19.2-5.87e-4 5.21 0.00228 10.4 0.00256 15.6 0.00148 1.12-2.3e-4 1.12-2.3e-4 2.26-4.64e-4 1.52-3.2e-4 3.04-6.44e-4 4.55-9.73e-4 14.2-0.00284 28.3 4.07e-4 42.5 0.0058 12.1 0.00446 24.2 0.00369 36.3-9.19e-4 14.1-0.00538 28.2-0.00744 42.4-0.00439 1.51 3.18e-4 3.03 6.33e-4 4.54 9.43e-4 0.744 1.54e-4 1.49 3.09e-4 2.26 4.68e-4 5.18 8.54e-4 10.4-5.74e-4 15.5-0.00295 6.34-0.00284 12.7-0.00197 19 0.00328 3.22 0.00258 6.44 0.00318 9.66 3.51e-4 13.2-0.0105 26.4 0.131 39.5 0.578 1.77 0.0581 1.77 0.0581 3.57 0.117 1.65 0.062 1.65 0.062 3.33 0.125 0.964 0.0358 1.93 0.0717 2.92 0.109 2.98 0.216 5.87 0.668 8.81 1.2v2l2 2-1 1c1.86 0.526 1.86 0.526 3.75 1.06 0.696 0.197 1.39 0.394 2.11 0.598 2.36 0.375 3.88 0.0664 6.14-0.66v2l3.69-0.625c2.76-0.467 4.08-0.469 6.71 0.605 3.91 1.53 7.53 1.01 11.7 0.797 3.43 0.26 5.14 1.29 7.94 3.22 3.13 1.56 4.9 2 8.44 1.94 4.05 0.071 6.09 1.06 9.56 3.06 1.33 0.683 2.66 1.35 4 2l2.19 1.06c3.3 1.1 6.36 1.32 9.82 1.5 1.99 0.441 1.99 0.441 3.99 3.44l1 3 3 2v1c0.615-0.0116 1.23-0.0232 1.86-0.0352 0.808-0.00902 1.62-0.018 2.45-0.0273 0.801-0.0116 1.6-0.0232 2.43-0.0352 2.26 0.0977 2.26 0.0977 5.26 1.1 1.47 0.0868 2.94 0.118 4.41 0.114 0.905-7.3e-5 1.81-1.46e-4 2.74-2.21e-4 0.994-0.00516 1.99-0.0103 3.01-0.0156 1.05-0.00144 2.1-0.00288 3.19-0.00436 2.3-0.00378 4.61-0.00989 6.91-0.018 3.71-0.013 7.42-0.02 11.1-0.0254 5.31-0.00828 10.6-0.0189 15.9-0.0316 13.8-0.0323 27.6-0.0446 41.5-0.0496 0.688-2.88e-4 1.38-5.75e-4 2.09-8.72e-4 26.1-0.00989 52.1 0.167 78.2 0.532 1.3 0.018 1.3 0.018 2.62 0.0364 10.1 0.141 20.2 0.294 30.3 0.464v1h-1393v-1c1.13-0.0103 2.27-0.0206 3.43-0.0312 10.8-0.0985 21.5-0.201 32.3-0.308 5.53-0.0548 11.1-0.108 16.6-0.158 5.36-0.0483 10.7-0.101 16.1-0.156 2.03-0.0201 4.05-0.0389 6.08-0.0561 13.2-0.114 26.3-0.527 39.5-1.29l-2-2c6.18-1.54 11.9-2.28 18.3-2.46 3.36-0.67 4.41-2.09 6.7-4.54h3v-2l8-1v-3c0.566-0.266 1.13-0.531 1.71-0.805 0.733-0.353 1.47-0.706 2.22-1.07 1.1-0.522 1.1-0.522 2.21-1.05 2.01-0.939 2.01-0.939 2.85-3.07 2.12-0.682 4.24-1.04 6.44-1.44 4.66-1 4.66-1 8.56-3.56-0.957-0.199-0.957-0.199-1.93-0.402-1.24-0.265-1.24-0.265-2.5-0.535-0.824-0.174-1.65-0.348-2.5-0.527-2.07-0.535-2.07-0.535-3.07-1.54-2.5-0.135-4.55-0.146-6.94 0.625-3.03 0.551-5.24-0.535-8.06-1.62 2.85-1.61 4.89-2.25 8.16-2.25 0.822-0.00419 1.64-0.00839 2.49-0.0127 0.894 0.00562 1.79 0.0112 2.71 0.017 0.949-0.0019 1.9-0.0038 2.87-0.00575 3.14-0.00371 6.29 0.00701 9.43 0.0182 2.2 0.00119 4.39 0.00164 6.59 0.00139 4.61 0.00157 9.23 0.00986 13.8 0.0233 5.87 0.0169 11.7 0.0208 17.6 0.0201 4.54 2.74e-4 9.09 0.0058 13.6 0.013 2.16 0.00315 4.32 0.00515 6.48 0.00589 11.2 0.00813 22.4 0.155 33.6 0.941 6.15 0.381 12.3 0.371 18.5 0.351 1.23 0.00387 2.45 0.00773 3.71 0.0117 1.17-0.00129 2.35-0.00258 3.56-0.00391 1.04-0.00113 2.09-0.00226 3.16-0.00342 2.64-0.0273 2.64-0.0273 4.65-0.63 2.26-0.536 4.23-0.622 6.55-0.62 0.889-0.00137 1.78-0.00275 2.69-0.00416 1.46 0.00539 1.46 0.00539 2.95 0.0109 1.56-2.23e-4 1.56-2.23e-4 3.14-4.51e-4 3.49 6.96e-4 6.97 0.00855 10.5 0.0163 2.5 0.00192 4.99 0.00338 7.49 0.00443 5.39 0.00317 10.8 0.00934 16.2 0.0181 7.85 0.0126 15.7 0.0186 23.5 0.0229 12.8 0.00708 25.6 0.0179 38.4 0.0317 1.15 0.00124 1.15 0.00124 2.32 0.00251 6.96 0.00755 13.9 0.0153 20.9 0.0232 4.58 0.00517 9.17 0.0103 13.7 0.0153 0.753 8.28e-4 1.51 0.00166 2.28 0.00251 12.7 0.0138 25.4 0.0235 38.1 0.0304 7.1 0.00402 14.2 0.0101 21.3 0.0217 30.7 0.0496 61.4-0.0994 92.2-0.911 27-0.691 27-0.691 39.4 0.371z" fill="#3D3E3F"/>
<path transform="translate(0)" d="m0 0h1536v30l-2-1c-0.414-2.72-0.414-2.72-0.625-6.06-0.0748-1.1-0.15-2.21-0.227-3.35-0.049-0.855-0.098-1.71-0.148-2.59-50.6-0.0171-101-0.0331-152-0.0423-1.13-2.07e-4 -1.13-2.07e-4 -2.28-4.18e-4 -16.3-0.00299-32.7-0.00576-49-0.0083-8.01-0.00125-16-0.00254-24-0.00387-0.798-1.31e-4 -1.6-2.62e-4 -2.42-3.96e-4 -25.8-0.00425-51.5-0.0117-77.3-0.021-26.5-0.00947-53-0.0156-79.6-0.0176-3.76-2.88e-4 -7.52-6.14e-4 -11.3-9.62e-4 -1.11-1.01e-4 -1.11-1.01e-4 -2.24-2.04e-4 -11.8-0.00117-23.7-0.00579-35.5-0.0118-11.9-0.00594-23.9-0.00812-35.8-0.00667-6.45 6.85e-4 -12.9-2.66e-4 -19.3-0.0057-26.8-0.0215-53.6 0.146-80.4 0.956-9.61 0.283-19.2 0.309-28.8 0.296-1.93 6.81e-4 -3.87 0.00166-5.8 0.0029-3.98 0.00144-7.95-5.54e-4 -11.9-0.00534-4.96-0.0057-9.93-0.0023-14.9 0.00345-17.8 0.0173-35.5-0.0114-53.3-0.564-28.6-0.89-57.3-0.721-85.9-0.699-5.45 0.00378-10.9 0.00241-16.4-0.0018-46.4-0.0431-46.4-0.0431-92.7 1.03-7.3 0.232-14.6 0.252-21.9 0.228-0.726-5.54e-4 -1.45-0.00111-2.2-0.00168-10.7-0.00936-21.3-0.23-32-0.855-4.64-0.249-9.05-0.227-13.7 0.267-4.86 0.47-9.53 0.348-14.4 0.00141-11.1-0.695-22.2-0.673-33.3-0.657-2.3-4.37e-4 -4.61-0.00131-6.91-0.00259-6.29-0.00222-12.6 0.00174-18.9 0.00678-6.1 0.00389-12.2 0.00304-18.3 0.00232-12.5-0.00131-24.9 0.00201-37.4 0.00802-12.3 0.00593-24.7 0.00977-37 0.0109-0.768 6.87e-5 -1.54 1.37e-4 -2.33 2.08e-4 -3.9 3.38e-4 -7.8 6.4e-4 -11.7 9.27e-4 -27.6 0.0021-55.2 0.00883-82.8 0.0183-26.8 0.00919-53.6 0.0163-80.4 0.0205-0.827 1.32e-4 -1.65 2.63e-4 -2.51 3.99e-4 -8.3 0.00132-16.6 0.00259-24.9 0.00384-16.9 0.00254-33.8 0.00536-50.7 0.00835-0.778 1.37e-4 -1.56 2.75e-4 -2.36 4.16e-4 -51.9 0.00919-104 0.0251-156 0.0419v-7c3.19-1.59 6.63-1.1 10.1-1.06 0.754 0.00451 1.51 0.00902 2.29 0.0137 1.86 0.0118 3.73 0.0297 5.59 0.0488v-2c3.46-0.495 3.46-0.495 7-1v-3c-0.713 0.0116-1.43 0.0232-2.16 0.0352-4.32 0.0407-8.38 0.041-12.7-0.66-3.65-0.429-5.81 0.289-9.19 1.62h-2l-1 13h-1v-17z" fill="#202122"/>
<path transform="translate(1536)" d="m0 0v30l-2-1c-0.414-2.72-0.414-2.72-0.625-6.06-0.0748-1.1-0.15-2.21-0.227-3.35-0.049-0.855-0.098-1.71-0.148-2.59-50.6-0.0171-101-0.0331-152-0.0423-1.13-2.07e-4 -1.13-2.07e-4 -2.28-4.18e-4 -16.3-0.00299-32.7-0.00576-49-0.0083-8.01-0.00125-16-0.00254-24-0.00387-0.798-1.31e-4 -1.6-2.62e-4 -2.42-3.96e-4 -25.8-0.00425-51.5-0.0117-77.3-0.021-26.5-0.00947-53-0.0156-79.6-0.0176-3.76-2.88e-4 -7.52-6.14e-4 -11.3-9.62e-4 -1.11-1.01e-4 -1.11-1.01e-4 -2.24-2.04e-4 -11.8-0.00117-23.7-0.00579-35.5-0.0118-11.9-0.00594-23.9-0.00812-35.8-0.00667-6.45 6.85e-4 -12.9-2.66e-4 -19.3-0.0057-26.8-0.0215-53.6 0.146-80.4 0.956-9.61 0.283-19.2 0.309-28.8 0.296-1.93 6.81e-4 -3.87 0.00166-5.8 0.0029-3.98 0.00144-7.95-5.54e-4 -11.9-0.00534-4.96-0.0057-9.92-0.00231-14.9 0.00345-22.1 0.0215-44.1-0.185-66.1-0.847-1.09-0.0327-1.09-0.0327-2.2-0.0661-1.06-0.0317-1.06-0.0317-2.14-0.0641-9.01-0.258-18-0.255-27-0.156v-1c-0.71-0.0606-1.42-0.121-2.15-0.184-0.919-0.0838-1.84-0.168-2.79-0.254-1.37-0.122-1.37-0.122-2.78-0.246-2.29-0.316-2.29-0.316-3.29-1.32-2.02-0.234-4.04-0.413-6.06-0.562-1.1-0.0838-2.21-0.168-3.35-0.254-1.28-0.0909-1.28-0.0909-2.59-0.184l-1-3h-14l-1 3-3.31 0.438c-3.62 0.445-3.62 0.445-6.69 1.56v-2h-16l1-2c-3.65-0.752-7.32-1.4-11-2 2.74-3.01 4.71-3.93 8.86-4.15 3.71-0.0244 7.42-0.0404 11.1-0.0422 1.3-0.0122 2.59-0.0245 3.93-0.0371 1.24-0.00193 2.48-0.00387 3.76-0.00586 1.71-0.00616 1.71-0.00616 3.45-0.0125 2.86 0.243 2.86 0.243 5.86 2.24 1.99 0.39 3.99 0.732 6 1v-2c9.08-1.14 18.1-1.13 27.2-1.09 1.66 0.00378 3.32 0.0074 4.99 0.0109 12.4 0.0351 24.9 0.213 37.3 0.439 41.9 0.757 83.7 0.73 126 0.707 1.2-6.36e-4 1.2-6.36e-4 2.43-0.00129 20.8-0.0112 41.6-0.0316 62.4-0.0612v-3c22.4-2.26 22.4-2.26 31 1l2-2c5.8-1.28 12-1.15 17.9-1.16 0.849-0.00494 1.7-0.00988 2.57-0.015 2.83-0.0153 5.67-0.0237 8.5-0.0321 2.05-0.0096 4.11-0.0196 6.16-0.03 5.63-0.0271 11.3-0.0482 16.9-0.068 4.81-0.0177 9.63-0.0388 14.4-0.0599 13-0.0572 26.1-0.107 39.1-0.154 8.88-0.032 17.8-0.0657 26.6-0.101 79.4-0.314 159-0.466 340-0.381z" fill="#202122"/>
<path transform="translate(1534,17)" d="m0 0c0.0606 0.855 0.121 1.71 0.184 2.59 0.0838 1.1 0.168 2.21 0.254 3.35 0.0812 1.1 0.162 2.2 0.246 3.34 0.0206 2.63 0.0206 2.63 1.32 3.72 0.0999 2.86 0.133 5.69 0.125 8.55 0.0014 0.914 0.0028 1.83 0.00425 2.77 0.00352 3.11-1.78e-4 6.22-0.00376 9.33 0.00104 2.24 0.00252 4.49 0.0044 6.73 0.00393 6.23 0.00155 12.5-0.00178 18.7-0.00226 6.06 1.69e-4 12.1 0.00248 18.2 0.00461 12.6 0.00444 25.1 0.00172 37.7-0.00275 12.7-0.00333 25.5-0.00126 38.2 1.29e-4 0.804 2.58e-4 1.61 3.91e-4 2.43 5.33e-4 3.27 0.00108 6.55 0.00165 9.82 0.0053 30.6 0.00564 61.1 0.00285 91.7-0.0027 29.6-0.00375 59.1-0.00248 88.7 7.75e-5 1.86 1.55e-4 3.72 2.31e-4 5.58 3.11e-4 7.48 6.29e-4 15 9.6e-4 22.4 9.17e-4 20.9 0.00149 41.8 0.00179 62.7 1.36e-5 0.953 2.73e-5 1.91 4.14e-5 2.89 4.1e-4 30.4-7.2e-4 60.8-0.00289 91.2-7.02e-5 0.987-1.4e-4 1.97-2.13e-4 2.99-0.00114 16-0.00236 32-0.00359 48.1-0.00482 63.1-0.00466 126 2.31e-4 189 0.00122 15.8 0.00243 31.6 0.00357 47.4 1.06e-4 1.46 1.06e-4 1.46 2.13e-4 2.95 0.00217 30.2 0.00307 60.4 0.00264 90.6-1.36e-5 0.955-2.72e-5 1.91-4.12e-5 2.89-3.13e-4 21-9.48e-4 42-0.00187 63-3.29e-4 7.53-6.42e-4 15.1-9.51e-4 22.6-7.74e-5 1.87-1.56e-4 3.74-2.36e-4 5.61-0.00114 26.7-3.62e-4 53.4 0.00211 80 0.00398 43.3 0.00326 86.5-0.00641 130-1.77e-4 0.813-3.54e-4 1.63-5.36e-4 2.46-0.0191 87.5-0.154 175-1.13 322-3.26 0.892-5.8 1.02-9.19 0.688-1.32-0.118-1.32-0.118-2.67-0.238-1.06-0.222-1.06-0.222-2.14-0.449l-1-2 11-1v-11l-5-1v3.81 7.19l-4-1h2v-13l5-1c-3.8e-4 -1.1-7.59e-4 -2.21-0.00115-3.35-0.0168-49-0.0322-98-0.0412-147-2.07e-4 -1.12-2.07e-4 -1.12-4.18e-4 -2.27-3e-3 -16.3-0.00577-32.6-0.0083-48.8-0.00125-7.99-0.00254-16-0.00387-24-1.31e-4 -0.795-2.62e-4 -1.59-3.96e-4 -2.41-0.00422-25.5-0.0117-51-0.021-76.5-0.00956-26.3-0.0156-52.7-0.0176-79-2.88e-4 -3.77-6.14e-4 -7.54-9.62e-4 -11.3-6.74e-5 -0.741-1.35e-4 -1.48-2.04e-4 -2.25-0.00101-10.2-0.00432-20.5-0.00956-30.7-0.0287-56.2-0.00988-112 0.517-168 0.0308-3.3 0.0607-6.59 0.0905-9.89 0.194-21.1 0.452-42.2 1.16-63.3 0.387-11.6 0.485-23.1 0.472-34.7 6.8e-4 -2.13 0.00166-4.27 0.0029-6.4 0.00145-4.43-5.89e-4 -8.87-0.00534-13.3-0.00554-5.41-0.00257-10.8 0.00334-16.2 0.0203-23.2-0.131-46.3-0.553-69.5-0.539-30-0.784-60-0.884-90-0.0135-3.95-0.0284-7.91-0.0439-11.9-0.0713-18.3-0.134-36.5-0.193-54.8-0.0174-5.39-0.0354-10.8-0.0538-16.2-0.304-89.2-0.476-178-0.528-323-0.00135-9.57-0.00324-19.1-0.00666-28.7-3.37e-4 -0.943-6.73e-4 -1.89-0.00102-2.86-6.81e-4 -1.9-0.00136-3.8-0.00204-5.7-0.00615-17.3-0.00822-34.7-0.00383-52 4.31e-4 -1.73 8.57e-4 -3.46 0.00128-5.19 2.08e-4 -0.848 4.16e-4 -1.7 6.31e-4 -2.57 0.00119-5.82-4.09e-5 -11.6-0.00239-17.4-0.0125-33.4 0.0127-66.8 1.14-100l-2-1c3-1 3-1 6 0z" fill="#111"/>
<path transform="translate(10.3 1553)" d="m0 0c0.873-0.00145 1.75-0.00291 2.64-0.0044 2.96-0.00368 5.91-1.64e-4 8.87 0.00326 2.13-0.00115 4.26-0.00274 6.38-0.00473 5.87-0.0042 11.7-0.0021 17.6 9.86e-4 6.32 0.00225 12.6-0.00122 19-0.00398 11.7-0.0042 23.4-0.00382 35-0.00109 10.8 0.00251 21.6 0.00317 32.4 0.00198 1.07-1.15e-4 1.07-1.15e-4 2.17-2.31e-4 2.9-3.11e-4 5.8-6.3e-4 8.7-9.6e-4 27.2-0.00306 54.5-2.82e-4 81.7 0.0051 24.2 0.00475 48.4 0.00432 72.6-4.61e-4 27.2-0.00535 54.4-0.00748 81.6-0.00439 2.9 3.21e-4 5.79 6.34e-4 8.69 9.43e-4 0.713 7.91e-5 1.43 1.58e-4 2.16 2.4e-4 10.8 0.00114 21.6-1.96e-4 32.4-0.00272 12.3-0.00285 24.5-0.00206 36.8 0.00328 6.26 0.00264 12.5 0.00364 18.8 3.51e-4 5.72-0.00296 11.4-0.00137 17.2 0.00398 2.08 0.00112 4.16 5.35e-4 6.23-0.00188 2.81-0.00301 5.62 4.82e-5 8.43 0.00472 1.23-0.00351 1.23-0.00351 2.48-0.00709 3.24 0.0109 5.84 0.0999 8.94 1.13 2.73 0.154 5.44 0.257 8.17 0.316 0.795 0.0208 1.59 0.0416 2.41 0.063 2.54 0.0653 5.07 0.124 7.61 0.183 1.72 0.0432 3.44 0.0868 5.16 0.131 4.22 0.107 8.43 0.208 12.7 0.307v1c-1.1 0.00635-1.1 0.00635-2.22 0.0128-18 0.104-36 0.213-54 0.327-8.7 0.0548-17.4 0.108-26.1 0.158-7.6 0.0435-15.2 0.0899-22.8 0.14-4.01 0.0261-8.02 0.0509-12 0.0722-17.7 0.0949-35.3 0.337-53 0.951-8 0.274-16 0.44-24 0.302-3.57-0.0966-3.57-0.0966-6.9 1.04-1.69 0.0953-3.37 0.13-5.06 0.125-1.35 0.00387-1.35 0.00387-2.72 0.00781-2.21-0.133-2.21-0.133-3.21-1.13-2.14-0.159-4.29-0.251-6.44-0.316-1.31-0.0419-2.61-0.0838-3.96-0.127-1.39-0.0398-2.78-0.0795-4.17-0.119-1.39-0.0432-2.79-0.0868-4.18-0.131-3.42-0.106-6.84-0.209-10.3-0.307v2c-4.63 0.147-8.27 0.192-12.8-1-6.44-1.45-12.9-1.25-19.4-1.2-1.35 0.00374-2.71 0.00658-4.06 0.00858-3.54 0.00757-7.07 0.0272-10.6 0.0494-3.62 0.0206-7.24 0.0296-10.9 0.0397-7.08 0.0213-14.2 0.0554-21.2 0.0977v2h-39v-2c-2.31 0.33-4.62 0.66-7 1v1c-13.5 0.687-26.9 1.04-40.4 0.938-10-0.0473-20 0.129-29.9 0.812-1.04 0.0618-2.09 0.124-3.17 0.187-5.76 0.453-10.4 1.51-15.6 4.11-2.55 1.27-5.19 2.12-7.91 2.95l1 2c-3.28 0.875-3.28 0.875-6.56 1.75-0.67 0.18-1.34 0.359-2.03 0.545-3.52 0.943-7.04 1.87-10.6 2.76-0.665 0.17-1.33 0.34-2.02 0.515-1.86 0.474-3.72 0.941-5.58 1.41-3.13 0.991-5.46 2.33-8.24 4.03h-3v3c-0.652 0.242-1.3 0.485-1.98 0.734-5.16 1.98-9.52 4.08-14 7.27-0.99 0.33-1.98 0.66-3 1 0.267 1.98 0.267 1.98 1 4 0.99 0.33 1.98 0.66 3 1-4.19 0.172-8.37 0.336-12.6 0.5-1.16 0.0477-2.32 0.0954-3.52 0.145-8.66 0.334-17.2 0.355-25.9 0.355v-45c3.23-1.61 6.75-1.14 10.3-1.13z" fill="#202122"/>
<path transform="translate(1353,1565)" d="m0 0-3 3c1.39-0.0522 1.39-0.0522 2.82-0.105 1.24-0.0271 2.47-0.0541 3.75-0.082 1.22-0.0348 2.44-0.0696 3.69-0.105 4.17 0.326 6.95 1.58 10.7 3.29 2.47 0.541 4.95 1.02 7.44 1.44 5.83 1.05 10.4 2.73 15.6 5.56 3.15 0.72 3.15 0.72 6 1 1.34 0.317 2.67 0.643 4 1v4c0.834 0.0374 1.67 0.0748 2.53 0.113 7.03 0.411 12.9 1.33 19.5 3.89l-1 3c-0.99 0.33-1.98 0.66-3 1 0.99 0.33 1.98 0.66 3 1-0.186 0.619-0.371 1.24-0.562 1.88-0.674 2.17-0.674 2.17 0.562 4.12-14.1 0.0234-28.2 0.0409-42.3 0.0518-6.55 0.00522-13.1 0.0123-19.7 0.0236-6.32 0.0109-12.6 0.0168-19 0.0194-2.41 0.00185-4.82 0.00546-7.24 0.0109-3.38 0.00726-6.76 0.00826-10.1 0.0078-0.998 0.0036-2 0.00719-3.02 0.0109-4.68-0.00695-9.06-0.178-13.7-1.12-1.62-0.201-3.25-0.39-4.88-0.562-0.781-0.0838-1.56-0.168-2.37-0.254-0.87-0.0909-0.87-0.0909-1.76-0.184-0.309-0.949-0.619-1.9-0.938-2.88-0.936-2.99-0.936-2.99-2.06-5.12-2.35-0.318-2.35-0.318-5.12-0.375-5.44-0.381-8.36-1.68-12.9-4.62-2.27-0.76-2.27-0.76-4-1v-2c-1.1 0.0696-1.1 0.0696-2.23 0.141-8.12 0.3-8.12 0.3-11.6-2.08l-2.12-2.06c-3.31-1.13-6.42-0.995-9.88-0.938-4.39 0.0586-7.91-0.767-12.1-2.06-3.17-0.167-3.17-0.167-6 0-4.16 0-8.09-0.509-12-2-1.31-2.5-1.31-2.5-2-5-1.99-1.18-1.99-1.18-4-2 46.3-1.24 92.7-1.69 139 0z" fill="#2E3032"/>
<path transform="translate(199,1565)" d="m0 0c8.97-0.0697 17.9-0.123 26.9-0.155 4.17-0.0156 8.33-0.0368 12.5-0.0709 4.03-0.0328 8.05-0.0506 12.1-0.0583 1.53-0.00551 3.06-0.0163 4.59-0.0326 8.25-0.0843 15.1 0.366 22.9 3.32 2.08-0.356 2.08-0.356 4-1 6.3-0.511 12.1 1.99 18 4-4.59 2.38-8.92 4.04-14 5l-2 1-2-1-1 3c-1.99 1.35-3.99 2.69-6 4l-2 3c-1.95 0.293-1.95 0.293-4.12 0.188l-3.88-0.188v2c-1.64 1.04-3.31 2.04-5 3l-2 2c-1.86 0.395-1.86 0.395-4.1 0.598-0.801 0.0793-1.6 0.159-2.43 0.24-0.837 0.0741-1.67 0.148-2.54 0.225-5.4 0.0239-5.4 0.0239-9.94 1.94 1.98 0.33 3.96 0.66 6 1v1c-21.3 1.01-42.6 1.31-63.9 1.53-2.95 0.0304-5.91 0.0622-8.86 0.0942-57.4 0.613-115 0.468-172 0.373v-1c12.5-0.132 24.9-0.262 37.4-0.391 5.79-0.0598 11.6-0.12 17.4-0.182 49.2-0.522 49.2-0.522 70.3-0.427v-2h-4l1-3c7.62-1 7.62-1 11-1 0.178-0.876 0.178-0.876 0.359-1.77 1.05-3.64 3.06-6.48 5.64-9.23 3.39-1.29 4.54-1.15 8 0 2.05-1.26 4.04-2.6 6-4 2.57-1.6 3.69-2.01 6.75-1.94 3.36 0.138 3.36 0.138 6.62-1.5 4.7-1.94 9.46-1.95 14.5-2.15 6.29-0.302 12.1-1.6 18.2-3.42v-3z" fill="#2E3032"/>
<path transform="translate(1219,1566)" d="m0 0v2l2 2-1 1c1.24 0.351 2.48 0.701 3.75 1.06 0.696 0.197 1.39 0.394 2.11 0.598 2.36 0.375 3.88 0.0664 6.14-0.66v2l3.69-0.625c2.76-0.467 4.08-0.469 6.71 0.605 3.91 1.53 7.53 1.01 11.7 0.797 3.43 0.26 5.14 1.29 7.94 3.22 3.13 1.56 4.9 2 8.44 1.94 4.05 0.071 6.09 1.06 9.56 3.06 1.33 0.683 2.66 1.35 4 2l2.19 1.06c3.3 1.1 6.36 1.32 9.82 1.5 1.99 0.441 1.99 0.441 3.99 3.44l1 3 3 2v1c0.615-0.0116 1.23-0.0232 1.86-0.0352 0.808-0.00902 1.62-0.018 2.45-0.0273 0.801-0.0116 1.6-0.0232 2.43-0.0352 2.26 0.0977 2.26 0.0977 5.26 1.1 1.47 0.0868 2.94 0.118 4.41 0.114 0.905-7.3e-5 1.81-1.46e-4 2.74-2.21e-4 0.994-0.00516 1.99-0.0103 3.01-0.0156 1.05-0.00144 2.1-0.00288 3.19-0.00436 2.3-0.00378 4.61-0.00989 6.91-0.018 3.71-0.013 7.42-0.02 11.1-0.0254 5.31-0.00828 10.6-0.0189 15.9-0.0316 13.8-0.0323 27.6-0.0446 41.5-0.0496 0.688-2.88e-4 1.38-5.75e-4 2.09-8.72e-4 26.1-0.00989 52.1 0.167 78.2 0.532 1.3 0.018 1.3 0.018 2.62 0.0364 10.1 0.141 20.2 0.294 30.3 0.464v1c-31.5 0.0308-63.1 0.051-94.6 0.0625-1.74 6.51e-4 -1.74 6.51e-4 -3.51 0.00132-57.5 0.021-115 0.0393-173-0.564-1.14-0.012-2.28-0.0239-3.46-0.0362-13-0.137-25.9-0.289-38.9-0.464v-1l2.94-0.375c1.01-0.206 2.02-0.412 3.06-0.625l1-2c-9.33-1.33-18.6-2.4-28-3l1.94-0.875c2.21-0.953 2.21-0.953 3.06-3.12l-2 0.562c-3.92 0.572-7.09 0.0898-11-0.562l-1-1c-2.48-0.375-4.95-0.706-7.44-1-7.3-0.867-7.3-0.867-9.56-2v-2h-2v-2l-2.25 0.562c-6.08 0.709-13 1.02-18.4-2.11-4.87-2.13-9.34-1.69-14.6-1.52-10.4 0.185-20.4-0.48-30.8-1.94 1.16-1.49 1.16-1.49 3-3 2.59-0.258 2.59-0.258 5.5-0.125 3.3 0.133 5.34 0.179 8.5-0.875 2.69 0.438 2.69 0.438 5 1v-2c-6.99-0.816-14-1.44-21-2l1-3c109-2.71 109-2.71 127 1z" fill="#36373A"/>
<path transform="translate(280 1565)" d="m0 0c0.83-0.00419 1.66-0.00839 2.51-0.0127 1.35 0.00843 1.35 0.00843 2.73 0.017 0.957-0.0019 1.91-0.0038 2.9-0.00575 3.17-0.00371 6.33 7e-3 9.5 0.0182 2.21 0.00119 4.42 0.00164 6.62 0.00139 4.63 0.00157 9.27 0.00985 13.9 0.0233 5.91 0.0169 11.8 0.0208 17.7 0.0201 4.56 2.73e-4 9.13 0.00578 13.7 0.013 2.18 0.00316 4.36 0.00515 6.53 0.00589 21.8 0.0156 21.8 0.0156 31.7 1.17-0.639 0.103-1.28 0.206-1.94 0.312l-2.06 0.688-1 3c1.04 0.0219 1.04 0.0219 2.11 0.0442 3.17 0.0748 6.34 0.171 9.52 0.268 1.09 0.0226 2.19 0.0451 3.32 0.0684 5.78 0.193 10.2 0.413 15.1 3.62-3.25 2.17-5.12 2.47-8.94 3-3.82 0.531-6.65 1.25-10.1 3l-2.25-0.562c-3.94-0.627-7.32 0.545-10.8 2.56l-1 3c-0.88 0.121-1.76 0.242-2.67 0.367-1.16 0.168-2.32 0.335-3.52 0.508-1.15 0.162-2.3 0.325-3.48 0.492-3.03 0.575-5.5 1.47-8.33 2.63h-3v2l-10 3v3c-2.69 0.898-4.49 1.18-7.28 1.3-0.886 0.039-1.77 0.0781-2.69 0.118-1.47 0.0556-1.47 0.0556-2.98 0.112-1.58 0.062-1.58 0.062-3.2 0.125-14.7 0.535-29.4 0.708-44.2 0.88-2.59 0.0304-5.19 0.0623-7.78 0.0942-52 0.631-104 0.466-156 0.373v-1c1.13-0.0103 2.27-0.0206 3.43-0.0312 10.8-0.0985 21.5-0.201 32.3-0.308 5.53-0.0548 11.1-0.108 16.6-0.158 5.36-0.0483 10.7-0.101 16.1-0.156 2.03-0.0201 4.05-0.0389 6.08-0.0561 13.2-0.114 26.3-0.527 39.5-1.29l-2-2c6.18-1.54 11.9-2.28 18.3-2.46 3.36-0.67 4.41-2.09 6.7-4.54h3v-2l8-1v-3c0.566-0.266 1.13-0.531 1.71-0.805 0.733-0.353 1.47-0.706 2.22-1.07 1.1-0.522 1.1-0.522 2.21-1.05 2.01-0.939 2.01-0.939 2.85-3.07 2.12-0.682 4.24-1.04 6.44-1.44 4.66-1 4.66-1 8.56-3.56-0.957-0.199-0.957-0.199-1.93-0.402-1.24-0.265-1.24-0.265-2.5-0.535-0.824-0.174-1.65-0.348-2.5-0.527-2.07-0.535-2.07-0.535-3.07-1.54-2.5-0.135-4.55-0.146-6.94 0.625-3.03 0.551-5.24-0.535-8.06-1.62 2.86-1.62 4.91-2.25 8.2-2.25z" fill="#36373A"/>
<path transform="translate(1535,1377)" d="m0 0h1v223c-20.7 0-20.7 0-30.1-1-0.968-0.0954-1.94-0.191-2.93-0.289-2.31-0.229-4.63-0.466-6.94-0.711v-1c2.31-0.33 4.62-0.66 7-1-0.969-0.392-1.94-0.784-2.94-1.19l-3.06-1.81c-0.364-1.66-0.7-3.33-1-5-2.48-1.37-2.48-1.37-5-2l0.188-2.81c0.121-3.11 0.121-3.11-1.44-4.78-1.93-1.55-3.6-2.29-5.94-3.09-0.715-0.251-1.43-0.503-2.17-0.762-0.543-0.182-1.09-0.364-1.64-0.551v-2c-0.866-0.103-1.73-0.206-2.62-0.312-3.54-0.721-6.22-1.96-9.38-3.69v-4c-0.965 0.143-0.965 0.143-1.95 0.289-8.19 1-16 0.358-23.9-1.8-2.25-0.523-4.38-0.728-6.69-0.878-0.901-0.06-1.8-0.12-2.73-0.182-0.964-0.0605-1.93-0.121-2.92-0.183-0.993-0.0652-1.99-0.13-3.01-0.197-3.17-0.207-6.34-0.409-9.51-0.611-2.15-0.14-4.3-0.28-6.45-0.42-5.27-0.343-10.5-0.682-15.8-1.02v-2l-14-1v-1c1.05-0.0103 2.1-0.0206 3.18-0.0312 9.87-0.0976 19.7-0.2 29.6-0.308 5.08-0.0553 10.2-0.109 15.2-0.158 4.9-0.0476 9.79-0.0999 14.7-0.156 1.87-0.0205 3.74-0.0392 5.62-0.0561 2.61-0.024 5.23-0.054 7.84-0.0856 1.17-0.00863 1.17-0.00863 2.37-0.0174 3.52 0.271 3.52 0.271 6.46-1.19 1.87-0.123 3.75-0.178 5.62-0.205 1.2-0.0199 2.4-0.0399 3.64-0.0604 1.31-0.0167 2.61-0.0334 3.96-0.0506 1.34-0.0206 2.69-0.0416 4.03-0.063 3.54-0.0553 7.09-0.105 10.6-0.153 3.61-0.0502 7.23-0.106 10.8-0.161 7.09-0.108 14.2-0.209 21.3-0.307l-0.562-3.31c-0.438-3.69-0.438-3.69 0.562-6.69 2.44 0.375 2.44 0.375 5 1 1.52 3.05 1.24 5.64 1 9-1 1.88-1 1.88-3 3-2.68 0.534-5.26 0.776-8 1 1.79 0.195 3.58 0.381 5.38 0.562 0.998 0.104 2 0.209 3.02 0.316 2.59 0.333 2.59 0.333 4.6-0.879l1-179z" fill="#1F2021"/>
<path transform="translate(226)" d="m0 0h1091v1c-1.27 0.00423-2.55 0.00846-3.86 0.0128-30.2 0.101-60.4 0.206-90.7 0.318-3.72 0.0138-7.44 0.0275-11.2 0.0412-0.74 0.00273-1.48 0.00546-2.24 0.00827-12 0.0441-24 0.0847-36 0.124-12.3 0.0404-24.6 0.0846-36.9 0.132-7.59 0.0293-15.2 0.0556-22.8 0.0783-5.82 0.0177-11.6 0.0405-17.5 0.0653-2.39 0.00936-4.78 0.017-7.17 0.0229-3.26 0.00827-6.51 0.0226-9.77 0.0384-1.43 0.00147-1.43 0.00147-2.88 0.00296-4.17 0.0261-8.07 0.0921-12.1 1.16v2c-6.88-0.875-6.88-0.875-8-2-7.7-0.395-15.4 0.0338-23 1l3 3c-15.8 0.0234-31.6 0.041-47.4 0.0518-7.34 0.00514-14.7 0.0121-22 0.0236-6.41 0.01-12.8 0.0164-19.2 0.0186-3.39 0.0013-6.77 0.00431-10.2 0.0116-3.8 0.00731-7.59 0.00826-11.4 0.0078-1.66 0.00539-1.66 0.00539-3.34 0.0109-7.51-0.00981-14.9-0.453-22.4-1.12l3-2c-0.983-1.21-0.983-1.21-2.85-1.1-0.794 0.0116-1.59 0.0232-2.41 0.0352-0.872 0.00773-1.74 0.0155-2.64 0.0234-1.84 0.0258-3.67 0.0518-5.51 0.0781-0.878 0.00773-1.76 0.0155-2.66 0.0234-0.8 0.0116-1.6 0.0232-2.42 0.0352-2.5-0.0977-2.5-0.0977-5.11-0.596-4.1-0.606-8.06-0.64-12.2-0.629-0.875-0.00156-1.75-0.00312-2.65-0.00473-2.92-0.00398-5.85-8.31e-4 -8.77 0.00232-2.1-0.00136-4.2-0.00314-6.3-0.00531-5.7-0.00456-11.4-0.00279-17.1 3.79e-4 -5.96 0.00253-11.9 1.84e-4 -17.9-0.00139-10-0.00182-20 5.79e-4 -30 0.00534-11.6 0.00544-23.2 0.00368-34.7-0.00183-9.94-0.00454-19.9-0.00518-29.8-0.00256-5.94 0.00156-11.9 0.00177-17.8-0.00154-5.58-0.00289-11.2-8.85e-4 -16.7 0.00489-2.05 0.00132-4.1 9.42e-4 -6.15-0.00126-2.8-0.00273-5.59 6.94e-4 -8.39 0.00568-0.811-0.00223-1.62-0.00446-2.46-0.00676-4.24 0.0147-8.17 0.368-12.3 1.13-1.82-0.127-3.63-0.314-5.44-0.562-4.8-0.525-8.07-0.137-12.6 1.56l3 2-14 1v-2c-3.73-0.879-7.17-1.09-11-1v2c-0.886-0.0116-1.77-0.0232-2.68-0.0352-1.86-0.0135-1.86-0.0135-3.75-0.0273-1.79-0.0174-1.79-0.0174-3.62-0.0352-4.12 0.0288-8.21 0.311-12.3 0.594-10.9 0.703-21.8 0.654-32.7 0.634-3.51-0.00537-7.02-1.98e-5 -10.5 0.00635-11.8 0.00314-23.6-0.152-35.4-1.14l2-2c-6.45-1.32-12.5-0.695-19 0l-1 3h-31v-1l11-1v-2c-0.917 0.0174-0.917 0.0174-1.85 0.0352-5.84 0.0576-11.6-0.0853-17.5-0.386-12.4-0.635-24.7-0.819-37.1-0.855-2.14-0.00961-4.28-0.0196-6.42-0.03-5.74-0.0267-11.5-0.0479-17.2-0.068-6.02-0.0221-12-0.0494-18.1-0.0761-11.4-0.0496-22.7-0.0947-34.1-0.138-13-0.0496-25.9-0.104-38.9-0.16-26.6-0.113-53.3-0.22-79.9-0.323v-1z" fill="#2E3032"/>
<path transform="translate(19.3 1.88)" d="m0 0c0.836 0.104 1.67 0.209 2.53 0.316 2.05 0.258 4.1 0.532 6.15 0.809v2c0.99 0.33 1.98 0.66 3 1-3.47 1.16-6.36 1.07-10 1v2c-11.5 1.15-11.5 1.15-17 1l0.125 2.88c-0.125 3.12-0.125 3.12-2.12 5.12-0.301 1.98-0.301 1.98-0.249 4.29-0.00706 1.36-0.00706 1.36-0.0143 2.75 0.00502 1.01 0.01 2.02 0.0152 3.05-0.00256 1.07-0.00511 2.14-0.00775 3.24-0.00619 3.63 0.00204 7.26 0.01 10.9-0.00148 2.62-0.00383 5.24-0.00699 7.87-0.00549 5.74-0.00347 11.5 0.00332 17.2 0.0101 8.6 0.00875 17.2 0.00507 25.8-0.00594 14.7-0.00237 29.3 0.00629 44 0.00874 14.9 0.0131 29.7 0.0122 44.6-5.74e-5 0.937-1.15e-4 1.87-1.74e-4 2.84-3.13e-4 4.78-6.97e-4 9.55-0.00111 14.3-0.00282 34.6 0.00406 69.2 0.016 104 0.0118 34.3 0.0195 68.6 0.0217 103 6.88e-5 1.06 1.38e-4 2.13 2.09e-4 3.22 6.26e-4 9.72 0.0012 19.4 0.00172 29.2 0.00128 24.2 0.0032 48.3 0.00555 72.5 1.07e-4 1.1 2.13e-4 2.2 3.23e-4 3.33 0.00525 53.6 0.0179 107 0.0311 161 0.00458 18.6 0.00913 37.2 0.0135 55.8 2.74e-4 1.15 5.48e-4 2.31 8.3e-4 3.49 0.0127 53.6 0.0201 107 0.0262 161 3.96e-4 3.48 7.95e-4 6.95 0.00119 10.4 0.00264 23 0.00519 46.1 0.00768 69.1 0.00495 45.9 0.0104 91.7 0.0163 138 2.78e-4 2.18 5.57e-4 4.37 8.34e-4 6.55 0.0125 98.3 0.0312 197 0.0525 295 2e-4 0.921 4e-4 1.84 6.06e-4 2.79 0.01 46.1 0.0203 92.1 0.0311 138h-2c-0.0055-47-0.0108-93.9-0.0159-141-9.98e-5 -0.919-2e-4 -1.84-3.02e-4 -2.78-0.0107-98.5-0.0199-197-0.0262-295-1.39e-4 -2.19-2.79e-4 -4.37-4.18e-4 -6.56-0.00292-45.9-0.00564-91.8-0.00812-138-0.00125-23.1-0.00253-46.1-0.00385-69.2-1.99e-4 -3.48-3.97e-4 -6.96-5.95e-4 -10.4-0.00306-53.6-0.00697-107-0.0133-161-2.05e-4 -1.73-2.05e-4 -1.73-4.15e-4 -3.49-0.00221-18.6-0.0045-37.1-0.00679-55.7-0.0066-53.5-0.0127-107-0.0153-160-5.35e-5 -1.1-1.07e-4 -2.2-1.62e-4 -3.33-0.00117-24.1-0.00206-48.3-0.0027-72.4-2.62e-4 -9.71-5.62e-4 -19.4-8.76e-4 -29.1-3.34e-5 -1.06-6.69e-5 -2.13-1.01e-4 -3.22-0.0011-34.3-0.00537-68.5-0.0113-103-0.00596-34.5-0.00882-69-0.00734-104 2.03e-4 -4.77 3.7e-4 -9.53 5.16e-4 -14.3 2.99e-5 -0.934 5.98e-5 -1.87 9.06e-5 -2.83 3.81e-4 -14.8-0.00261-29.6-0.00699-44.4-0.00424-14.6-0.00493-29.1-0.00182-43.7 0.00172-8.54 6.88e-4 -17.1-0.00439-25.6-0.0031-5.67-0.00256-11.3 9.16e-4 -17 0.00187-3.21 0.00165-6.43-0.00193-9.64-0.0301-28.8-0.0301-28.8 1.13-34.8l2-2 2 1c0.674-0.327 1.35-0.655 2.04-0.992 4.25-1.45 7.88-0.735 12.3-0.133z" fill="#101010"/>
<path transform="translate(654 1.77)" d="m0 0c2.55 0.354 2.55 0.354 4.73-0.251 3.9-0.706 7.76-0.66 11.7-0.649 0.888-0.00156 1.78-0.00312 2.69-0.00473 2.98-0.00399 5.95-8.29e-4 8.93 0.00232 2.13-0.00135 4.27-0.00314 6.4-0.00531 5.8-0.00456 11.6-0.00279 17.4 3.79e-4 6.06 0.00253 12.1 1.85e-4 18.2-0.00139 10.2-0.00182 20.3 5.8e-4 30.5 0.00534 11.8 0.00545 23.5 0.00368 35.3-0.00183 10.1-0.00453 20.2-0.00518 30.3-0.00256 6.04 0.00156 12.1 0.00176 18.1-0.00154 5.67-0.00288 11.3-8.98e-4 17 0.00489 2.09 0.00133 4.17 9.36e-4 6.26-0.00126 2.84-0.00272 5.68 6.78e-4 8.52 0.00568 1.25-0.00335 1.25-0.00335 2.52-0.00676 3.27 0.0113 5.91 0.0909 9.04 1.13 1.52 0.0471 3.04 0.0382 4.56-0.00781 0.879-0.0168 1.76-0.0335 2.66-0.0508 1.85-0.0443 3.7-0.0964 5.55-0.156 0.879-0.0142 1.76-0.0284 2.66-0.043 0.803-0.0221 1.61-0.0442 2.43-0.0669 2.62 0.4 3.48 1.31 5.13 3.32-3.23 2.16-4.05 2.24-7.77 2.21-0.973-0.00383-1.95-0.00765-2.95-0.0116-1.06-0.0149-2.12-0.0297-3.21-0.045-1.67-0.0121-1.67-0.0121-3.37-0.0245-3.57-0.0308-7.14-0.0785-10.7-0.132-1.13-0.0164-2.27-0.0329-3.43-0.0498-7-0.107-14-0.239-21-0.378-27.2-0.533-54.4-0.7-81.6-0.572v2c-5.62 0.25-5.62 0.25-9-2-2.94-0.31-2.94-0.31-6.28-0.266-1.24-0.00258-2.47-0.00516-3.74-0.00781-1.29 0.00773-2.58 0.0155-3.92 0.0234-1.29-0.00773-2.58-0.0155-3.9-0.0234-1.24 0.00258-2.47 0.00516-3.75 0.00781-1.7 0.00338-1.7 0.00338-3.43 0.00684-2.88 0.25-4.54 0.761-6.98 2.26 3.3 0.889 6.62 1.46 10 2l-1 2 15 1v2l2-2c2.69-0.27 5.29-0.0874 8 0l-1-3c2.96-1.48 5.65-1.17 8.94-1.19 1.25-0.0142 2.49-0.0284 3.78-0.043 3.29 0.23 3.29 0.23 6.29 2.23h-2v2c0.855-0.0116 1.71-0.0232 2.59-0.0352 1.66-0.0135 1.66-0.0135 3.35-0.0273 1.1-0.0116 2.2-0.0232 3.34-0.0352 2.72 0.0977 2.72 0.0977 3.72 1.1 2.35 0.235 4.71 0.414 7.06 0.562 1.94 0.126 1.94 0.126 3.91 0.254 0.999 0.0606 2 0.121 3.03 0.184v1h-101v-1c1.2-0.049 2.41-0.098 3.65-0.148 1.58-0.075 3.15-0.151 4.73-0.227l2.41-0.0938c4.59-0.0494 4.59-0.0494 8.22-2.53l-1-2 2-2c-3.39-2.05-5.99-2.25-9.91-2.23-1.16 0.00193-2.31 0.00387-3.5 0.00586-1.2 0.0122-2.41 0.0245-3.65 0.0371-1.18 6.45e-4 -2.36 0.00129-3.57 0.00195-5.32 0.0265-10.6 0.151-15.8 0.725-6.63 0.675-13.2 0.327-19.8 0.0234-8.63-0.37-17.2-0.612-25.8-0.485-2.84-0.0779-2.84-0.0779-5.84-1.08-2.33-0.0395-4.67-0.044-7 0v-1c8.07-2.11 15.1-3.4 23.4-2.23z" fill="#262729"/>
<path transform="translate(1300 8.31)" d="m0 0c1.3 0.023 2.59 0.046 3.92 0.0697 3.71 0.0694 7.41 0.148 11.1 0.231 1.12 0.0231 2.23 0.0462 3.38 0.0699 1.03 0.0263 2.07 0.0526 3.13 0.0797 0.899 0.0216 1.8 0.0432 2.72 0.0654 2.59 0.175 5 0.63 7.53 1.17 1.64 0.128 3.29 0.221 4.94 0.281 1.37 0.0561 1.37 0.0561 2.77 0.113 1.91 0.0705 3.81 0.141 5.72 0.211 0.912 0.0374 1.82 0.0748 2.76 0.113 0.827 0.0303 1.65 0.0606 2.51 0.0918 3.03 0.25 5.51 0.762 8.19 2.21 2.65 1.23 4.95 1.39 7.86 1.6 1.48 0.112 1.48 0.112 2.98 0.227 0.748 0.049 1.5 0.098 2.27 0.148v1c-15.9 0.205-31.7 0.391-47.6 0.562-1.18 0.0127-2.36 0.0255-3.57 0.0386-33.3 0.355-66.6 0.461-99.9-0.0386-0.855-0.0128-1.71-0.0256-2.59-0.0388-10.1-0.153-20.2-0.326-30.3-0.524v-1c7.92-0.33 15.8-0.66 24-1v-1c1.06-0.049 2.12-0.098 3.21-0.148 1.39-0.075 2.78-0.151 4.16-0.227 1.05-0.0464 1.05-0.0464 2.12-0.0938 4.21-0.126 4.21-0.126 7.51-2.53 5.45-0.781 11-0.921 16.5-1.19 0.85-0.0436 1.7-0.0873 2.58-0.132 17.4-0.858 34.7-0.686 52.1-0.368z" fill="#252628"/>
<path transform="translate(299,1553)" d="m0 0c28.5-0.0233 57-0.041 85.5-0.0518 13.2-0.00516 26.5-0.0122 39.7-0.0236 11.5-0.00995 23.1-0.0164 34.6-0.0186 6.11-0.00131 12.2-0.00439 18.3-0.0116 5.74-0.00677 11.5-0.00889 17.2-0.00738 2.11-2.76e-4 4.23-0.00228 6.34-0.0061 2.88-0.00495 5.75-0.00379 8.63-0.00105 1.27-0.00437 1.27-0.00437 2.56-0.00883 3.3 0.00854 5.97 0.0787 9.12 1.13 2.73 0.154 5.44 0.257 8.17 0.316 0.795 0.0208 1.59 0.0416 2.41 0.063 2.54 0.0653 5.07 0.124 7.61 0.183 1.72 0.0432 3.44 0.0868 5.16 0.131 4.22 0.107 8.43 0.208 12.7 0.307v1c-1.1 0.00635-1.1 0.00635-2.22 0.0128-18 0.104-36 0.213-54 0.327-8.7 0.0548-17.4 0.108-26.1 0.158-7.6 0.0435-15.2 0.0899-22.8 0.14-4.01 0.0261-8.02 0.0509-12 0.0722-17.7 0.0949-35.3 0.337-53 0.951-8 0.274-16 0.44-24 0.302-3.57-0.0966-3.57-0.0966-6.9 1.04-1.69 0.0953-3.37 0.13-5.06 0.125-1.35 0.00387-1.35 0.00387-2.72 0.00781-2.21-0.133-2.21-0.133-3.21-1.13-2.14-0.159-4.29-0.251-6.44-0.316-1.31-0.0419-2.61-0.0838-3.96-0.127-1.39-0.0398-2.78-0.0795-4.17-0.119-1.39-0.0432-2.79-0.0868-4.18-0.131-3.42-0.106-6.84-0.209-10.3-0.307v2c-6.36 0.202-11.9-0.372-18-2l1-4z" fill="#212223"/>
<path transform="translate(1075 .88)" d="m0 0c1.28-0.00137 2.55-0.00275 3.87-0.00417 1.41 0.00354 2.82 0.00717 4.22 0.0109 1.49 2.82e-4 2.98 1.24e-4 4.47-4.43e-4 4.03-2.87e-4 8.07 0.00559 12.1 0.0126 4.22 0.00625 8.44 0.00684 12.7 0.00803 7.99 0.00311 16 0.0113 24 0.0213 9.09 0.0112 18.2 0.0167 27.3 0.0217 18.7 0.0105 37.4 0.028 56.1 0.0503v1c-5.23 1.07-10.2 1.13-15.6 1.1-0.902-0.00141-1.8-0.00283-2.73-0.00429-2.86-0.00557-5.73-0.0181-8.59-0.0309-1.95-0.00502-3.9-0.00958-5.84-0.0137-4.76-0.011-9.52-0.0282-14.3-0.0488v2h-11c-0.846 0.0657-1.69 0.131-2.56 0.199-9.45 0.731-18.9 1.13-28.4 1.36-0.823 0.0208-1.65 0.0417-2.49 0.0632-19 0.46-37.9 0.485-56.9 0.497-2.43 0.00206-4.87 0.00583-7.3 0.00991-3.87 0.00588-7.75 0.00599-11.6 0.00154-1.45-0.00104-2.89-4.8e-4 -4.34 0.00176-2 0.00256-4-0.00193-5.99-0.00675-1.69-0.00119-1.69-0.00119-3.41-0.00241-2.79-0.117-5.31-0.491-8.02-1.13v-3c22.4-2.26 22.4-2.26 31 1l2-2c3.79-1.05 7.42-1.12 11.3-1.12z" fill="#252628"/>
<path transform="translate(303,1)" d="m0 0c17.7-0.0472 35.3-0.0822 53-0.104 8.21-0.0102 16.4-0.0241 24.6-0.0473 7.17-0.0202 14.3-0.0329 21.5-0.0373 3.78-0.00256 7.56-0.00835 11.3-0.0233 21.2-0.0807 42.3 0.73 63.5 2.21v2h7v1c-9.28 0.621-18.5 1.08-27.8 1-6.44-0.0521-12.8 0.199-19.2 0.773-12.4 0.931-12.4 0.931-16.9-0.28-2.2-0.516-4.03-0.577-6.29-0.521-0.832 0.0135-1.66 0.0271-2.52 0.041-0.902 0.0161-1.8 0.0322-2.73 0.0488-13.9 0.143-27.7-0.963-41.6-2.06v-1c-12-0.563-24-1.06-36-0.996-0.746 0.00353-1.49 0.00707-2.26 0.0107-3.67 0.0208-7.35 0.0569-11 0.11-1.35 0.0119-2.71 0.0237-4.06 0.0352-1.19 0.0168-2.38 0.0337-3.61 0.051-3.01-0.208-4.46-0.797-7.05-2.21z" fill="#262729"/>
<path transform="translate(278 9.02)" d="m0 0c1.44 0.0247 1.44 0.0247 2.91 0.05 2.02 0.0373 4.03 0.0778 6.05 0.121 3.09 0.0631 6.18 0.104 9.28 0.145 1.96 0.039 3.93 0.0793 5.89 0.121 0.925 0.00953 1.85 0.0191 2.8 0.0289 0.858 0.023 1.72 0.046 2.6 0.0698 0.754 0.0141 1.51 0.0282 2.28 0.0428 2.51 0.513 3.44 1.4 4.98 3.41v2c7.92-0.33 15.8-0.66 24-1v-1h16v2h19v-2h20v2h16v1c-22.6 0.131-45.1 0.262-67.7 0.391-10.5 0.0602-21 0.121-31.4 0.182-9.15 0.0532-18.3 0.106-27.4 0.158-4.83 0.0276-9.67 0.0555-14.5 0.0838-1.86 0.0109-3.73 0.0218-5.59 0.0327-1.35 0.00795-1.35 0.00795-2.74 0.0161-4.33 0.0251-8.66 0.0485-13 0.0681-1.21 0.00545-1.21 0.00545-2.44 0.011-1.56 0.00703-3.13 0.014-4.69 0.0209-4.61 0.022-9.21 0.0644-13.8 0.12-1.05 0.00946-2.1 0.0189-3.18 0.0287-1.85 0.0168-3.7 0.0409-5.55 0.0745-1.98 0.0135-3.95-0.075-5.93-0.187l-2-2c9.24-0.33 18.5-0.66 28-1v-1c0.626-0.0198 1.25-0.0396 1.9-0.0601 2.83-0.0951 5.65-0.205 8.48-0.315 0.985-0.0309 1.97-0.0619 2.98-0.0938 0.941-0.0387 1.88-0.0773 2.85-0.117 1.3-0.0471 1.3-0.0471 2.63-0.0952 2.36-0.131 2.36-0.131 4.15-2.32 5.73-1.2 11.4-1.1 17.2-0.984z" fill="#252628"/>
<path transform="translate(1408 479)" d="m0 0c4.59 0.039 7.27 1.01 11.3 3.25 1.45 0.278 2.91 0.526 4.38 0.75 5.6 1.15 8.73 4.24 12.6 8.25 0.62 0.576 1.24 1.15 1.88 1.75 7.35 7.38 10.5 18 11.1 28.3-0.99-0.33-1.98-0.66-3-1l-1 2c-0.982-2.42-1.96-4.83-2.94-7.25-0.278-0.682-0.556-1.36-0.842-2.07-2.15-5.32-2.15-5.32-2.67-7.83-0.389-2.09-0.389-2.09-2.74-3.1-2.81-0.909-2.81-0.909-5.81-0.562-3.61-0.225-4.05-1.23-6.42-3.74-3.83-3.51-8.75-5.81-13.3-8.34-6-3.51-6-3.51-7.88-6.95-0.148-0.712-0.296-1.42-0.449-2.16 1.63-1.63 3.44-1.21 5.69-1.25z" fill="#F4F5F7"/>
<path transform="translate(1037,99)" d="m0 0 3.81 0.75c7.72 1.81 14 8.17 18.6 14.4 3.37 6.13 5.19 13 6.58 19.9l-1 3-1-5-4 1c-2.57-3.85-3.86-7.52-5-12h-2v-2h-3l-1 2c-0.655-0.58-1.31-1.16-1.98-1.76-5.86-5.01-11.3-8.62-18.3-11.9-3.65-1.78-6.64-3.73-9.75-6.34v-3c7.64-2.4 10.9-2.62 18 1z" fill="#F4F5F7"/>
<path transform="translate(1223,288)" d="m0 0c1.97 0.859 1.97 0.859 3.69 1.94 3.13 2.32 3.13 2.32 6.62 2.25 7.78 1.71 14 9.35 18.5 15.7 1.78 3.19 2.74 6.49 3.64 10 0.474 2.14 0.474 2.14 1.54 4.1 0.134 2.67 0.0432 5.32 0 8h-3c-1.31-2.6-2.63-5.21-3.94-7.81-0.373-0.738-0.746-1.48-1.13-2.24-0.358-0.712-0.715-1.42-1.08-2.16-0.33-0.655-0.66-1.31-1-1.98-0.848-1.81-0.848-1.81-1.85-4.81l-3.56-0.125c-4.45-0.54-6.55-2.31-9.73-5.33-2.6-2.35-5.64-3.89-8.7-5.54-1.78-0.962-3.55-1.94-5.31-2.94-0.842-0.463-1.68-0.926-2.55-1.4-2.54-1.98-3.21-3.62-4.14-6.66 3.71-1.85 7.95-1.46 12-1z" fill="#F4F5F7"/>
<path transform="translate(1448,1047)" d="m0 0h1c0.395 10.4-2.1 21.3-9.04 29.3-4.64 4.93-9.17 9.33-16 10.7-2.46 0.547-4.47 1.13-6.81 2.12-2.19 0.812-2.19 0.812-5.19-0.188 1-2 1-2 2.88-2.62 2.54-1.64 2.62-2.39 3.5-5.19 1.51-4.62 3.77-6.33 7.62-9.19l1-2h2v-2h2c0.249-0.543 0.498-1.09 0.754-1.64 1.51-2.86 3.3-5.41 5.18-8.04 0.69-0.973 1.38-1.95 2.09-2.95 1.97-2.36 1.97-2.36 4.97-3.36 1.36-1.64 2.7-3.31 4-5z" fill="#F3F4F6"/>
<path transform="translate(455,1425)" d="m0 0c0.99 0.33 1.98 0.66 3 1l1 7h3c1.72 2.47 3.24 4.91 4.75 7.5 4.38 7.29 9.09 13.4 15.2 19.4 2.06 2.12 2.06 2.12 2.06 4.12h2l1 6c-2.78 1.39-3.94 0.685-6.88-0.25-5.04-1.91-8.68-4.49-12.6-8.06-0.504-0.45-1.01-0.899-1.53-1.36-4.91-4.69-6.79-10.2-8.6-16.6-0.975-3.43-0.975-3.43-2.38-6.69-0.0707-2.04-0.0842-4.08-0.0625-6.12 0.00902-1.1 0.018-2.19 0.0273-3.32 0.0116-0.843 0.0232-1.69 0.0352-2.55z" fill="#F4F5F7"/>
<path transform="translate(489,99)" d="m0 0c0 2 0 2-2.19 4.38-7.1 6.62-7.1 6.62-9.81 6.62l-0.875 1.75c-0.696 1.39-1.42 2.77-2.19 4.12-1.08 2.18-1.08 2.18-1.31 5-0.615 3.07-1.55 4.71-3.37 7.2-2.86 4.38-4.97 9.23-7.25 13.9-3 0-3 0-5-1-2.51-8.72-0.0205-16.2 4-24 4.41-6.99 10.3-13.6 18-17 3.39-0.594 6.56-1 10-1z" fill="#E4E8E9"/>
<path transform="translate(1257,1243)" d="m0 0c-0.936 8.02-0.936 8.02-2 12l-0.938 3.56c-3.11 8.21-10.7 15.1-18.1 19.4-2.31 0.793-2.31 0.793-4.44 1.19-0.761 0.146-1.52 0.291-2.3 0.441-3.08 0.507-6.16 0.976-9.26 1.37 1.39-2.78 3.3-3.55 6-5h2c-0.0889-0.721-0.178-1.44-0.27-2.18 0.367-3.83 1.93-5.14 4.58-7.88 3.35-3.48 3.35-3.48 6.36-7.25 0.44-0.558 0.879-1.12 1.33-1.69h2l2-4 0.75-2.06c1.82-2.82 4.24-3.55 7.25-4.94 4.11-3 4.11-3 5-3z" fill="#F2F3F5"/>
<path transform="translate(266,1237)" d="m0 0h1l1 9c0.906 0.222 1.81 0.443 2.75 0.672 3.89 1.59 5.01 3.12 7.32 6.58 0.678 0.986 1.36 1.97 2.05 2.99 0.621 0.911 1.24 1.82 1.88 2.76 2.95 3.92 6.16 6.95 10 10 4 4.32 4 4.32 4 9-4.53 1.51-7.78 0.0111-12-2-2.91-2.11-5.45-4.48-8-7l-2.81-2.69c-6.15-6.5-8.67-14.4-9.19-23.3 0.938-3.44 0.938-3.44 2-6z" fill="#F3F4F6"/>
<path transform="translate(75,1048)" d="m0 0 0.625 1.75c1.29 2.49 1.29 2.49 4.2 4.02 3.45 2.43 5.08 4.61 7.3 8.17 4.52 7.37 4.52 7.37 10.9 13.1 1.17 2.31 1.17 2.31 2.19 5 0.344 0.887 0.688 1.77 1.04 2.69 0.77 2.31 0.77 2.31 0.77 4.31-9.92-1.14-16.4-6.92-23.1-14.1-2.02-3.07-2.76-5.37-3.47-8.92-0.48-2.07-1.19-3.79-2.09-5.7-1.3-3.14-1.95-4.98-1.38-8.31l3-2z" fill="#F4F5F7"/>
<path transform="translate(294,293)" d="m0 0c-0.736 1.15-1.49 2.3-2.25 3.44-0.418 0.638-0.835 1.28-1.27 1.93-1.77 1.95-2.96 2.11-5.48 2.63-1.07 1.8-1.07 1.8-2 4-0.722 0.763-1.44 1.53-2.19 2.31-2.22 2.62-2.22 2.62-1.25 6 0.622 5.25-1.63 7.54-4.56 11.7-0.787 1.32-1.56 2.66-2.31 4-0.557 0.99-1.11 1.98-1.69 3-2.38 0.188-2.38 0.188-5 0-2.31-3.47-2.34-4.93-2-9l2-3c0.499-1.59 0.953-3.2 1.38-4.81 1.26-4.35 2.83-7.57 5.62-11.2l2.19-3c5.22-6.05 10.8-10.4 18.8-8z" fill="#E4E8E9"/>
<path transform="translate(1062,1436)" d="m0 0h3c0.353 4.94-0.697 7.67-3 12l-0.312 2.38c-1.96 7.49-9.37 14.5-15.7 18.6-3.65 1.14-7.19 1.72-11 2l4-7h2c-0.248-0.536-0.495-1.07-0.75-1.62-0.391-3.71 1.51-5.56 3.75-8.38h2v-2h2v-2h2l0.812-2.31c1.15-2.6 2.08-3.85 4.19-5.69l2-2 2.06-0.438 1.94-0.562 1-3z" fill="#F3F4F6"/>
<path transform="translate(96.3 484)" d="m0 0c0.851 0.344 0.851 0.344 1.72 0.695l-1 5-5 1v2h-2l-0.312 2.81c-0.695 3.22-1.16 4.21-3.69 6.19 0.63 1.47 0.63 1.47 1.27 2.97 0.967 3.38 0.567 5.11-1.05 8.21-0.844 1.43-1.71 2.85-2.6 4.25-0.438 0.732-0.877 1.46-1.33 2.22-1.08 1.79-2.19 3.57-3.3 5.35h-4c-0.0606-0.626-0.121-1.25-0.184-1.9-0.0838-0.817-0.168-1.63-0.254-2.48-0.0812-0.812-0.162-1.62-0.246-2.46-0.207-2.21-0.207-2.21-1.32-4.16 1.6-6.56 3.82-12.6 8-18 0.557-0.804 1.11-1.61 1.69-2.44 8.92-9.88 8.92-9.88 13.6-9.26z" fill="#E4E8E9"/>
<path transform="translate(112,479)" d="m0 0c2.14 2.14 2.43 3.13 3 6-3.65 3.04-7.74 4.97-12 7v2h-2v2c-1.57 1.55-1.57 1.55-3.69 3.31-3.27 2.77-6.33 5.61-9.31 8.69-0.99-1.32-1.98-2.64-3-4l0.812-1.56c1.51-3.1 2.84-6.26 4.19-9.44h2v-2l2.44-0.75c2.73-0.972 2.73-0.972 3.38-3.38l0.188-1.88-2-1c5.3-1.8 10.6-3.51 16-5z" fill="#F3F4F6"/>
<path transform="translate(310,289)" d="m0 0v2h-2c-0.0947 0.905-0.0947 0.905-0.191 1.83-1.15 3.09-2.8 3.55-5.75 4.92-0.896 0.428-1.79 0.856-2.71 1.3-2.35 0.953-2.35 0.953-4.35 0.953-0.248 0.639-0.495 1.28-0.75 1.94-1.25 2.06-1.25 2.06-3.38 2.81l-1.88 0.25v2c-3.08 3.35-6.4 6.22-10 9-0.938-2.44-0.938-2.44-1-6 3.01-5.26 6.63-9.16 12-12 1.78-2.07 1.78-2.07 3-4l-2-2c6.45-3.84 11.6-5.47 19-3z" fill="#F3F4F6"/>
<path transform="translate(499,96)" d="m0 0c1.88 2.5 1.88 2.5 3 5-4.21 3.51-9.43 7-15 7l-1 3c-1.56 1.39-1.56 1.39-3.44 2.69-0.617 0.437-1.23 0.874-1.87 1.32-1.69 0.988-1.69 0.988-3.69 0.988-0.268 0.639-0.536 1.28-0.812 1.94-1.19 2.06-1.19 2.06-4.19 3.06 0.459-4.94 1.54-7.45 5-11 2.03-1.58 4.09-3.1 6.2-4.57 2.06-1.48 2.06-1.48 3.8-4.43h2l-1-3c3.8-1.79 6.81-2.64 11-2z" fill="#F3F4F6"/>
<path transform="translate(772 8.81)" d="m0 0c1.25-0.0142 2.49-0.0284 3.78-0.043 3.29 0.23 3.29 0.23 6.29 2.23h-2v2c0.855-0.0116 1.71-0.0232 2.59-0.0352 1.1-0.00902 2.21-0.018 3.35-0.0273 1.1-0.0116 2.2-0.0232 3.34-0.0352 2.72 0.0977 2.72 0.0977 3.72 1.1 2.35 0.235 4.71 0.414 7.06 0.562 1.94 0.126 1.94 0.126 3.91 0.254 1.5 0.0909 1.5 0.0909 3.03 0.184v1h-47v-3h4l-1-3c2.96-1.48 5.65-1.17 8.94-1.19z" fill="#252628"/>
<path transform="translate(458,1442)" d="m0 0 4 1v2h2c1.48 2.09 1.48 2.09 3.19 4.94 3.28 5.32 6.88 10.2 10.8 15.1-3 1-3 1-5.75 0-6.51-4.01-10.9-8.61-13.2-16-0.405-2.32-0.761-4.66-1-7z" fill="#E4E8E9"/>
<path transform="translate(1445,1058)" d="m0 0c2 3 2 3 1.93 5.06-2.19 8.5-7.6 14.1-13.9 19.9-2.35 1.34-2.35 1.34-4 2l-2-2c0.592-0.571 1.18-1.14 1.79-1.73 5.64-5.79 8.66-10.9 11-18.6 1.17-2.69 1.17-2.69 3.3-4.06 0.615-0.206 1.23-0.412 1.86-0.625z" fill="#E4E8E9"/>
<path transform="translate(1061,4)" d="m0 0v2h11v1c-5.04 0.0248-10.1 0.0429-15.1 0.0549-1.71 0.00502-3.42 0.0118-5.14 0.0205-2.46 0.0122-4.93 0.0178-7.39 0.0222-1.14 0.00774-1.14 0.00774-2.31 0.0156-3.81 4e-4 -7.35-0.187-11.1-1.11v-3c22.9-2.31 22.9-2.31 30 1z" fill="#27282A"/>
<path transform="translate(347,13)" d="m0 0h8v2h19v-2h20v2h16v1h-64l1-3z" fill="#262729"/>
<path transform="translate(1535,1563)" d="m0 0h1c0.149 4.18 0.257 8.36 0.33 12.5 0.0301 1.42 0.071 2.84 0.123 4.26 0.424 11.9 0.424 11.9-1.81 15.3-1.66 1.38-1.66 1.38-4.64 2.93l-2-1c0.0116-0.699 0.0232-1.4 0.0352-2.12 0.00902-0.91 0.018-1.82 0.0273-2.76 0.0116-0.905 0.0232-1.81 0.0352-2.74 0.0648-2.4 0.0648-2.4-1.1-4.38h2v-2l5 1 1-21z" fill="#262729"/>
<path transform="translate(265,1553)" d="m0 0h34l-1 3-34 1 1-4z" fill="#222324"/>
<path transform="translate(519,4)" d="m0 0 1 3c-3.79 0.0579-7.58 0.0936-11.4 0.125-1.62 0.0251-1.62 0.0251-3.27 0.0508-1.03 0.00645-2.06 0.0129-3.12 0.0195-1.43 0.0157-1.43 0.0157-2.89 0.0317-2.34-0.227-2.34-0.227-4.34-2.23v-2c16.4-1.6 16.4-1.6 24 1z" fill="#262729"/>
<path transform="translate(1061,1444)" d="m0 0 2 3c-1.75 7.27-5.86 11.7-11 17l-3-3c0.596-0.37 1.19-0.74 1.8-1.12 2.75-2.35 3.8-4.67 5.32-7.94 2.69-5.76 2.69-5.76 4.88-7.94z" fill="#E5E9EA"/>
<path transform="translate(77,1064)" d="m0 0c2.33 0.227 2.33 0.227 5 1 1.55 1.96 1.55 1.96 2.75 4.38 0.407 0.791 0.815 1.58 1.23 2.4 1.02 2.23 1.02 2.23 2.02 5.23-4.2-0.196-5.75-0.762-8.88-3.69-2.28-3.56-2.62-5.18-2.12-9.31z" fill="#E5E8EA"/>
<path transform="translate(1518,3)" d="m0 0h11l1 4c-6.59 1.05-11.6 0.833-18-1v-1h6v-2z" fill="#101010"/>
<path transform="translate(75,515)" d="m0 0v10c0.99-0.33 1.98-0.66 3-1-0.706 3.67-2.28 6.7-4 10-2.45-3.68-2.23-6.44-2.12-10.7 0.00902-0.702 0.018-1.4 0.0273-2.13 0.0235-1.73 0.0594-3.46 0.0977-5.19 2-1 2-1 3-1z" fill="#F4F5F7"/>
<path transform="translate(1534,1591)" d="m0 0c2 2 2 2 2 9h-18v-1l3.31-0.312c3.54-0.661 4.62-0.89 6.69-3.69l2 2c2.25-2.05 3-3.01 4-6z" fill="#252628"/>
<path transform="translate(1212,13)" d="m0 0h15l-1 3h-38v-1c7.92-0.33 15.8-0.66 24-1v-1z" fill="#262729"/>
<path transform="translate(268,1256)" d="m0 0 2 2 2-1c0.962 1.25 1.92 2.5 2.88 3.75 0.534 0.696 1.07 1.39 1.62 2.11 1.4 1.99 2.49 3.94 3.51 6.14-4.85-0.416-6.84-2.42-10-6-2-3-2-3-2-7z" fill="#E6E9EB"/>
<path transform="translate(1253,1252)" d="m0 0c2 3 2 3 1.68 4.97-2.17 5.63-2.17 5.63-4.68 7.59-2 0.438-2 0.438-5-0.562l1.31-2.12c1.75-2.89 1.75-2.89 3.25-6.12 1.44-2.75 1.44-2.75 3.44-3.75z" fill="#E5E9EA"/>
<path transform="translate(1530,1586)" d="m0 0c2.97 0.495 2.97 0.495 6 1 0.375 2.69 0.375 2.69 0 6-1.82 2.06-3.73 3.39-6 5l-2-1 2-11z" fill="#333437"/>
<path transform="translate(1526,1542)" d="m0 0c2.44 0.375 2.44 0.375 5 1 1.48 2.96 1.06 5.74 1 9l-7-2 1-8z" fill="#222325"/>
<path transform="translate(455,133)" d="m0 0h2l1 8h3v3h-2l-2 6c-2.38-4.45-3.23-7.72-2.56-12.8 0.102-0.799 0.204-1.6 0.309-2.42 0.0838-0.603 0.168-1.21 0.254-1.83z" fill="#F2F3F5"/>
<path transform="translate(1013,1566)" d="m0 0h25l-1 2c-3.72 1.24-6.84 0.829-10.7 0.258-4.43-0.489-8.89-0.331-13.3-0.258v-2z" fill="#37383B"/>
<path transform="translate(435,1570)" d="m0 0c1.98 0.66 3.96 1.32 6 2l-1 3c-3.38 0.625-3.38 0.625-7 1l-2-2 4-4z" fill="#37383B"/>
<path transform="translate(630,4)" d="m0 0c-0.99 0.33-1.98 0.66-3 1v2l-3.81 0.0625c-0.708 0.0116-1.42 0.0232-2.14 0.0352-2.04-0.0977-2.04-0.0977-5.04-1.1v-2c5.02-1.13 8.98-0.779 14 0z" fill="#27282A"/>
<path transform="translate(1526,1550)" d="m0 0 5 1v3c-2.97 0.66-5.94 1.32-9 2 1-3 1-3 4-5v-1z" fill="#202122"/>
<path transform="translate(265,328)" d="m0 0 2 3h3l-1 4-4 1c-2-3-2-3-2-7l2-1z" fill="#F2F4F6"/>
<path transform="translate(1092,1565)" d="m0 0h10c-2.12 2.06-2.12 2.06-5 4-3.31-0.25-3.31-0.25-6-1l1-3z" fill="#38393B"/>
<path transform="translate(444,270)" d="m0 0h3v6l-4 2c-0.125-5.75-0.125-5.75 1-8z" fill="#343537"/>
<path transform="translate(817,13)" d="m0 0v2c0.99 0.33 1.98 0.66 3 1-1.44 0.223-2.87 0.428-4.31 0.625-0.801 0.116-1.6 0.232-2.43 0.352-2.26 0.0234-2.26 0.0234-5.26-1.98 3.44-2.29 4.99-2.18 9-2z" fill="#262729"/>
</svg>
