<?xml version="1.0" standalone="no"?>
<!DOCTYPE svg PUBLIC "-//W3C//DTD SVG 20010904//EN"
 "http://www.w3.org/TR/2001/REC-SVG-20010904/DTD/svg10.dtd">
<svg version="1.0" xmlns="http://www.w3.org/2000/svg"
 width="492.000000pt" height="492.000000pt" viewBox="0 0 492.000000 492.000000"
 preserveAspectRatio="xMidYMid meet">
<metadata>
Created by potrace 1.10, written by Peter Selinger 2001-2011
</metadata>
<g transform="translate(0.000000,492.000000) scale(0.100000,-0.100000)"
fill="#000000" stroke="none">
<path d="M0 2460 l0 -2460 2460 0 2460 0 0 2460 0 2460 -2460 0 -2460 0 0
-2460z m2665 2158 l680 -3 29 -23 c54 -42 58 -58 62 -302 3 -124 7 -235 9
-246 7 -30 29 -34 195 -34 80 0 162 -5 183 -11 27 -7 46 -7 70 2 28 10 38 9
71 -9 21 -11 46 -31 55 -44 19 -27 30 -139 37 -375 4 -145 7 -163 22 -164 9 0
76 0 147 1 87 1 140 -3 160 -12 17 -7 67 -13 112 -13 79 0 84 -1 114 -31 29
-29 32 -40 42 -130 11 -100 14 -1438 4 -1601 -6 -90 -19 -127 -58 -155 -40
-30 -79 -35 -309 -37 -118 -1 -218 -5 -222 -9 -4 -4 -9 -81 -12 -172 -3 -91
-9 -207 -13 -258 -7 -86 -10 -95 -40 -126 l-33 -33 -127 -7 c-71 -4 -179 -7
-241 -7 -61 0 -123 -4 -137 -9 l-26 -10 0 -157 c0 -313 -7 -359 -56 -396 -47
-36 -182 -42 -928 -42 -390 1 -732 4 -760 7 -27 4 -72 10 -100 13 -29 4 -62
16 -77 29 -26 20 -28 28 -38 141 -5 66 -10 180 -10 253 0 75 -5 142 -11 153
-10 19 -21 20 -162 20 -226 1 -337 10 -370 33 -51 34 -58 69 -65 331 l-7 240
-215 6 c-246 6 -319 19 -354 59 -20 25 -23 42 -29 165 -9 176 -7 1395 1 1540
7 107 8 111 40 147 47 51 70 54 376 63 98 2 180 6 181 7 2 2 5 109 8 238 5
266 9 280 85 335 40 28 45 28 87 17 30 -8 52 -9 70 -2 15 6 98 10 186 10 l159
0 10 26 c6 14 10 85 10 157 1 73 5 179 10 236 9 102 10 106 47 143 37 38 37
38 123 39 47 1 95 4 108 7 12 4 69 6 125 5 56 -2 408 -4 782 -5z"/>
</g>
</svg>
